<?xml version="1.0" standalone="no"?>
<!DOCTYPE svg PUBLIC "-//W3C//DTD SVG 20010904//EN"
 "http://www.w3.org/TR/2001/REC-SVG-20010904/DTD/svg10.dtd">
<svg version="1.0" xmlns="http://www.w3.org/2000/svg"
 width="700.000000pt" height="700.000000pt" viewBox="0 0 700.000000 700.000000"
 preserveAspectRatio="xMidYMid meet">
<metadata>
Created by potrace 1.14, written by Peter Selinger 2001-2017
</metadata>
<g transform="translate(0.000000,700.000000) scale(0.100000,-0.100000)"
fill="#000000" stroke="none">
<path d="M3417 6265 c-1 -2 -52 -5 -113 -9 -61 -4 -121 -9 -135 -11 -13 -2
-46 -7 -74 -10 -73 -8 -299 -52 -380 -74 -97 -26 -236 -69 -260 -80 -11 -5
-58 -24 -105 -41 -442 -169 -911 -499 -1214 -853 l-47 -56 -1 -460 c-1 -254
-3 -461 -4 -461 -6 0 -183 80 -287 129 -59 28 -116 51 -126 51 -43 0 -61 -33
-132 -239 -35 -102 -36 -131 -7 -157 21 -19 222 -121 343 -174 28 -12 73 -33
100 -45 56 -26 74 -32 125 -40 51 -9 4791 -9 4831 0 50 11 201 77 392 172 199
99 200 100 168 200 -42 130 -92 251 -111 268 -25 23 -47 17 -189 -51 -62 -30
-115 -54 -117 -54 -2 0 -33 -14 -69 -30 -36 -16 -68 -30 -70 -30 -3 0 -5 207
-5 459 l0 459 -36 44 c-75 91 -230 243 -354 348 -301 256 -687 469 -1060 588
-152 48 -331 93 -424 107 -21 3 -48 7 -60 10 -75 16 -303 36 -452 39 -68 1
-125 2 -127 1z"/>
<path d="M1539 3239 c-52 -9 -107 -47 -134 -93 -73 -125 -99 -277 -59 -346 70
-120 266 -134 474 -35 36 17 47 23 115 64 41 25 246 170 255 181 3 3 71 54
153 114 81 59 147 111 147 114 0 9 -904 9 -951 1z"/>
<path d="M4524 3241 c-2 -2 15 -18 39 -35 23 -16 119 -87 213 -157 233 -173
320 -231 416 -278 158 -77 294 -90 397 -40 31 15 64 39 74 53 42 61 36 172
-17 295 -37 87 -62 117 -115 143 -44 21 -53 22 -524 22 -263 1 -480 -1 -483
-3z"/>
<path d="M385 3058 c4 -123 9 -187 20 -263 14 -101 19 -131 42 -234 34 -152
82 -290 152 -437 54 -112 76 -149 171 -288 75 -110 294 -315 410 -385 141 -84
306 -157 425 -187 17 -4 35 -8 40 -10 6 -1 28 -5 50 -9 22 -4 42 -8 45 -10 30
-18 388 -28 495 -13 436 58 847 270 1182 611 l91 94 80 -81 c145 -148 228
-217 387 -321 178 -116 429 -228 585 -260 8 -2 36 -8 63 -14 26 -6 64 -14 85
-17 20 -3 48 -8 62 -11 14 -2 99 -6 190 -8 211 -4 346 15 535 77 382 125 689
391 897 778 78 144 175 430 194 570 3 25 8 48 10 51 1 3 6 28 9 55 4 27 8 60
10 73 14 82 24 353 14 361 -3 3 -33 -31 -67 -75 -342 -453 -658 -704 -966
-769 -58 -12 -209 -13 -266 -3 -185 36 -340 120 -660 362 -193 145 -280 206
-355 250 -268 157 -527 165 -682 22 -53 -49 -86 -103 -111 -182 l-19 -59 -7
44 c-16 100 -103 213 -199 258 -171 80 -387 43 -637 -109 -50 -30 -228 -156
-240 -169 -3 -3 -54 -42 -115 -88 -60 -45 -115 -86 -122 -92 -28 -23 -158
-104 -226 -139 -172 -92 -371 -127 -537 -96 -150 27 -332 124 -505 268 -131
109 -413 422 -498 553 -12 18 -25 34 -29 34 -5 0 -6 -60 -3 -132z"/>
<path d="M751 1076 c-22 -27 -118 -326 -107 -335 6 -5 239 -9 519 -9 398 1
507 3 507 13 0 7 -72 36 -172 69 -189 62 -401 145 -575 225 -116 53 -152 61
-172 37z"/>
<path d="M6140 1059 c-192 -92 -389 -168 -723 -281 -38 -13 -67 -27 -65 -33 5
-16 1028 -16 1028 0 0 26 -98 308 -113 326 -23 26 -51 24 -127 -12z"/>
</g>
</svg>
