<?xml version="1.0" standalone="no"?>
<!DOCTYPE svg PUBLIC "-//W3C//DTD SVG 20010904//EN"
 "http://www.w3.org/TR/2001/REC-SVG-20010904/DTD/svg10.dtd">
<svg version="1.0" xmlns="http://www.w3.org/2000/svg"
 width="700.000000pt" height="700.000000pt" viewBox="0 0 700.000000 700.000000"
 preserveAspectRatio="xMidYMid meet">
<metadata>
Created by potrace 1.14, written by Peter Selinger 2001-2017
</metadata>
<g transform="translate(0.000000,700.000000) scale(0.100000,-0.100000)"
fill="#000000" stroke="none">
<path d="M3278 6965 c-2 -1 -41 -6 -88 -10 -83 -6 -128 -11 -179 -19 -14 -3
-46 -7 -71 -11 -72 -11 -92 -14 -140 -24 -538 -109 -1024 -331 -1450 -660
-474 -366 -851 -855 -1080 -1400 -118 -281 -216 -646 -245 -918 -15 -142 -20
-233 -20 -418 0 -251 7 -343 40 -560 7 -41 34 -182 39 -200 2 -5 7 -28 11 -50
5 -22 10 -42 10 -45 18 -77 108 -352 139 -425 8 -16 26 -59 41 -95 29 -70 142
-298 155 -315 4 -5 20 -32 35 -60 58 -105 204 -312 337 -478 60 -75 309 -324
408 -408 281 -238 615 -440 965 -583 136 -55 416 -143 519 -162 12 -2 41 -8
66 -14 130 -28 322 -54 490 -66 156 -10 502 -4 579 11 9 2 48 6 86 10 39 4 79
9 90 11 11 3 36 7 55 10 147 22 407 89 565 144 333 117 734 333 975 527 8 6
42 33 75 60 122 97 361 329 461 448 125 148 276 363 368 525 142 248 292 622
351 870 21 90 27 119 31 140 2 14 9 45 14 70 12 53 17 87 26 155 3 28 7 61 9
75 26 183 25 679 0 810 -2 9 -6 41 -10 70 -4 29 -8 60 -10 69 -1 9 -6 36 -10
61 -31 187 -107 456 -185 655 -55 138 -127 290 -192 404 -26 46 -48 86 -48 89
0 6 -182 279 -207 310 -228 288 -387 451 -613 633 -405 323 -910 570 -1380
674 -156 35 -326 63 -490 81 -61 6 -516 14 -522 9z"/>
</g>
</svg>
