<?xml version="1.0" standalone="no"?>
<!DOCTYPE svg PUBLIC "-//W3C//DTD SVG 20010904//EN"
 "http://www.w3.org/TR/2001/REC-SVG-20010904/DTD/svg10.dtd">
<svg version="1.0" xmlns="http://www.w3.org/2000/svg"
 width="700.000000pt" height="700.000000pt" viewBox="0 0 700.000000 700.000000"
 preserveAspectRatio="xMidYMid meet">
<metadata>
Created by potrace 1.14, written by Peter Selinger 2001-2017
</metadata>
<g transform="translate(0.000000,700.000000) scale(0.100000,-0.100000)"
fill="#000000" stroke="none">
<path d="M2918 6618 l-3 -372 -129 -22 c-174 -30 -309 -63 -526 -129 -30 -10
-104 -36 -165 -60 -444 -172 -800 -399 -1085 -692 -284 -290 -447 -585 -532
-958 l-22 -100 -3 -1389 c-4 -1365 -3 -1390 16 -1470 12 -45 40 -119 63 -166
58 -117 196 -257 313 -317 159 -82 183 -86 587 -90 l357 -5 3 -296 c3 -281 4
-300 25 -344 30 -66 105 -143 172 -175 l56 -28 380 -3 380 -3 55 28 c77 39
115 102 115 188 0 86 -38 149 -114 188 -51 25 -63 27 -183 27 l-128 0 0 210 0
210 974 0 975 0 3 -303 c3 -298 3 -303 28 -352 33 -67 99 -131 168 -163 l57
-27 375 -3 c423 -3 430 -2 495 69 45 50 56 80 56 146 0 64 -21 112 -71 157
-51 46 -92 56 -237 56 l-123 0 0 209 0 209 338 5 c382 4 410 9 567 90 117 60
255 200 313 317 23 47 52 122 63 167 20 82 20 98 16 1415 -4 1451 -3 1426 -62
1652 -170 655 -753 1227 -1568 1540 -237 91 -483 156 -799 210 l-38 7 0 369
c0 245 -3 370 -10 370 -6 0 -27 -11 -48 -24 -52 -35 -174 -82 -279 -108 -125
-31 -360 -32 -484 -1 -110 28 -210 66 -271 103 -27 17 -53 30 -58 30 -6 0 -11
-139 -12 -372z m-596 -3496 c114 -55 201 -173 215 -291 l6 -51 961 2 961 3 7
54 c17 114 111 236 226 289 50 24 69 27 157 27 91 0 106 -3 167 -32 114 -54
195 -156 219 -279 l13 -64 475 -2 476 -3 3 -530 c1 -314 -2 -565 -8 -615 -23
-197 -159 -356 -345 -405 -52 -13 -325 -15 -2360 -15 -2471 0 -2336 -3 -2450
51 -64 30 -174 140 -204 204 -50 107 -51 112 -51 733 l0 582 484 0 483 0 7 48
c8 57 45 140 87 193 105 133 311 177 471 101z"/>
<path d="M1762 2453 l3 -328 32 -67 c144 -305 573 -301 715 8 22 47 23 60 26
382 l3 332 -391 0 -391 0 3 -327z"/>
<path d="M4460 2503 c0 -153 5 -305 10 -338 21 -131 105 -242 228 -302 50 -24
69 -27 157 -28 91 0 106 3 165 31 74 35 136 91 175 158 50 85 55 126 55 454
l0 302 -395 0 -395 0 0 -277z"/>
</g>
</svg>
