<svg width="103" height="92" viewBox="0 0 103 92" fill="none" xmlns="http://www.w3.org/2000/svg">
<g filter="url(#filter0_dd)">
<path d="M56.8 61.8V30.2C56.8 16.9 46.3 10 35.9 10C25.4 10 15 16.9 15 30.2V61.8C15 75.2 25.4 82 35.9 82C46.3 82 56.8 75.2 56.8 61.8ZM43.4 29.4V62.3C43.4 67.4 39.7 70 35.9 70C32.2 70 28.4 67.4 28.4 62.3V29.4C28.4 24.3 32.1 21.8 35.9 21.8C39.6 21.8 43.4 24.3 43.4 29.4ZM90.543 11.8C90.543 11.4 90.243 11 89.643 11H79.643L63.743 19.6C63.243 19.8 63.143 20.2 63.343 20.6L67.143 28.8C67.343 29.2 67.843 29.4 68.343 29.3C71.243 28.2 74.143 27 77.243 26V80.2C77.243 80.6 77.543 81 78.143 81H89.643C90.243 81 90.543 80.6 90.543 80.2V11.8Z" fill="#E6E2E0"/>
</g>
<defs>
<filter id="filter0_dd" x="0" y="0" width="102.543" height="92" filterUnits="userSpaceOnUse" color-interpolation-filters="sRGB">
<feFlood flood-opacity="0" result="BackgroundImageFix"/>
<feColorMatrix in="SourceAlpha" type="matrix" values="0 0 0 0 0 0 0 0 0 0 0 0 0 0 0 0 0 0 127 0" result="hardAlpha"/>
<feOffset dx="-10" dy="5"/>
<feGaussianBlur stdDeviation="2.5"/>
<feColorMatrix type="matrix" values="0 0 0 0 0.701961 0 0 0 0 0.737255 0 0 0 0 0.772549 0 0 0 1 0"/>
<feBlend mode="normal" in2="BackgroundImageFix" result="effect1_dropShadow"/>
<feColorMatrix in="SourceAlpha" type="matrix" values="0 0 0 0 0 0 0 0 0 0 0 0 0 0 0 0 0 0 127 0" result="hardAlpha"/>
<feOffset dx="2"/>
<feGaussianBlur stdDeviation="5"/>
<feColorMatrix type="matrix" values="0 0 0 0 1 0 0 0 0 1 0 0 0 0 1 0 0 0 0.8 0"/>
<feBlend mode="normal" in2="effect1_dropShadow" result="effect2_dropShadow"/>
<feBlend mode="normal" in="SourceGraphic" in2="effect2_dropShadow" result="shape"/>
</filter>
</defs>
</svg>
