<svg width="122" height="92" viewBox="0 0 122 92" fill="none" xmlns="http://www.w3.org/2000/svg">
<g filter="url(#filter0_dd)">
<path d="M57.3 61.8V30.2C57.3 16.9 46.8 10 36.4 10C25.9 10 15.5 16.9 15.5 30.2V61.8C15.5 75.2 25.9 82 36.4 82C46.8 82 57.3 75.2 57.3 61.8ZM43.9 29.4V62.3C43.9 67.4 40.2 70 36.4 70C32.7 70 28.9 67.4 28.9 62.3V29.4C28.9 24.3 32.6 21.8 36.4 21.8C40.1 21.8 43.9 24.3 43.9 29.4ZM109.743 68.8C109.743 68.4 109.343 68 108.743 68H84.343L103.843 42.2C107.243 37.5 108.843 32.8 108.843 28.6C108.843 17.8 99.143 10.1 88.743 10.1C74.843 10.1 68.543 19.2 68.543 30.6C68.543 30.9 68.943 31.3 69.543 31.3H80.243C80.843 31.3 81.243 30.9 81.243 30.6C81.243 25.3 85.143 23.1 88.743 23.1C92.243 23.1 94.943 25.7 94.943 29.3C94.943 31.2 94.243 33.3 92.543 35.6L67.843 69.7V80.2C67.843 80.6 68.243 81 68.843 81H108.743C109.343 81 109.743 80.6 109.743 80.2V68.8Z" fill="#E6E2E0"/>
</g>
<defs>
<filter id="filter0_dd" x="0.5" y="0" width="121.243" height="92" filterUnits="userSpaceOnUse" color-interpolation-filters="sRGB">
<feFlood flood-opacity="0" result="BackgroundImageFix"/>
<feColorMatrix in="SourceAlpha" type="matrix" values="0 0 0 0 0 0 0 0 0 0 0 0 0 0 0 0 0 0 127 0" result="hardAlpha"/>
<feOffset dx="-10" dy="5"/>
<feGaussianBlur stdDeviation="2.5"/>
<feColorMatrix type="matrix" values="0 0 0 0 0.701961 0 0 0 0 0.737255 0 0 0 0 0.772549 0 0 0 1 0"/>
<feBlend mode="normal" in2="BackgroundImageFix" result="effect1_dropShadow"/>
<feColorMatrix in="SourceAlpha" type="matrix" values="0 0 0 0 0 0 0 0 0 0 0 0 0 0 0 0 0 0 127 0" result="hardAlpha"/>
<feOffset dx="2"/>
<feGaussianBlur stdDeviation="5"/>
<feColorMatrix type="matrix" values="0 0 0 0 1 0 0 0 0 1 0 0 0 0 1 0 0 0 0.8 0"/>
<feBlend mode="normal" in2="effect1_dropShadow" result="effect2_dropShadow"/>
<feBlend mode="normal" in="SourceGraphic" in2="effect2_dropShadow" result="shape"/>
</filter>
</defs>
</svg>
