<svg width="54" height="51" viewBox="0 0 54 51" fill="none" xmlns="http://www.w3.org/2000/svg">
<g clip-path="url(#clip0)">
<path d="M3.61743 38.2512L26.9999 51.0012L50.3823 38.2512V12.7512L26.9999 0.00219727L3.61743 12.7522V38.2512Z" fill="url(#paint0_linear)"/>
<path d="M24.5861 3.07178L7.6331 12.3161C7.66698 12.6004 7.66698 12.8874 7.6331 13.1717L24.5872 22.4161C26.0167 21.4199 27.9667 21.4199 29.3963 22.4161L46.3504 13.1716C46.3165 12.8873 46.3163 12.6005 46.3503 12.3162L29.3972 3.07182C27.9677 4.06801 26.0176 4.06801 24.5879 3.07182L24.5861 3.07178ZM47.9781 15.7252L31.006 25.0725C31.2047 26.7399 30.2297 28.3348 28.6014 29.006L28.6205 47.3919C28.8981 47.5063 29.1612 47.6497 29.405 47.8196L46.3591 38.5754C46.1604 36.908 47.1354 35.313 48.7637 34.6418V16.1533C48.486 16.0388 48.2228 15.8954 47.979 15.7256L47.9781 15.7252ZM6.02154 15.8279C5.77778 15.9978 5.51472 16.1413 5.23706 16.2558V34.7443C6.86529 35.4154 7.84035 37.0104 7.64164 38.6777L24.5947 47.9221C24.8384 47.7522 25.1017 47.6087 25.3793 47.4942V29.0057C23.7511 28.3346 22.776 26.7396 22.9747 25.0723L6.02168 15.8275L6.02154 15.8279Z" fill="url(#paint1_linear)"/>
<path d="M27.0002 51L50.3827 38.25V12.75L27.0002 25.5V51Z" fill="black" fill-opacity="0.25098"/>
<path d="M27.0001 51V25.5L3.61768 12.75V38.25L27.0001 51Z" fill="black" fill-opacity="0.039216"/>
<path d="M3.61743 12.75L26.9999 25.5L50.3823 12.75L26.9999 0L3.61743 12.75Z" fill="black" fill-opacity="0.13018"/>
<path d="M10.8729 18.5273H7.79321V32.5922H10.8729V18.5273Z" fill="white"/>
<path d="M16.2391 32.5922V27.4324C16.9985 27.4922 17.7579 27.4922 18.3907 27.4922C22.7782 27.4922 24.0438 25.4402 24.0438 22.9102C24.0438 19.8422 21.7235 18.5273 18.1375 18.5273H13.1594V32.5922H16.2391ZM17.9055 25.4402C17.336 25.4402 16.4922 25.4402 16.2391 25.4203V20.6391H18.1586C20.0149 20.6391 21.0696 21.4758 21.0696 23.0098V23.0496C21.0696 24.2449 20.6055 25.4402 17.9055 25.4402Z" fill="white"/>
<path d="M34.5887 18.5273H25.2441V32.5922H28.3238V26.3965H34.1668V24.2848H28.3027V20.659H34.3777L34.5887 18.5273Z" fill="white"/>
<path d="M44.6671 21.2765L45.4687 19.3241C44.2663 18.5073 42.6421 18.2085 40.596 18.2085C37.6218 18.2085 35.1749 19.5233 35.1749 22.2128C35.1749 24.6233 37.0522 25.5796 38.9296 26.1573L40.8069 26.755C42.0937 27.1733 43.1483 27.5718 43.1483 28.8866C43.1483 30.0819 42.0515 30.5601 40.3851 30.5601C38.6976 30.5601 36.8835 30.0819 35.8499 29.4644L35.0483 31.5761C36.3983 32.3929 38.1069 32.7913 40.4062 32.7913C43.6757 32.7913 46.2069 31.4366 46.2069 28.548C46.2069 25.8585 44.0343 25.0019 41.8405 24.3046L39.7944 23.6671C38.9085 23.3882 38.2335 23.0097 38.2335 21.9339C38.2335 20.8382 39.1827 20.3999 40.596 20.3999C42.3257 20.3999 43.6757 20.6987 44.6671 21.2765Z" fill="white"/>
</g>
<defs>
<linearGradient id="paint0_linear" x1="3.61743" y1="25.5012" x2="50.3828" y2="25.5012" gradientUnits="userSpaceOnUse">
<stop stop-color="#363535"/>
</linearGradient>
<linearGradient id="paint1_linear" x1="5.23738" y1="25.4968" x2="48.7627" y2="25.4968" gradientUnits="userSpaceOnUse">
<stop stop-color="#B6B4B2"/>
</linearGradient>
<clipPath id="clip0">
<rect width="54" height="51" fill="white"/>
</clipPath>
</defs>
</svg>
