<svg width="79" height="79" viewBox="0 0 79 79" fill="none" xmlns="http://www.w3.org/2000/svg">
<rect width="79" height="79" fill="#E6E2E0"/>
<g opacity="0.45">
<g opacity="0.45">
<path opacity="0.45" d="M57.1059 14.9282V20.7924L51.897 17.8603V11.9961L57.1059 14.9282Z" fill="black"/>
</g>
</g>
<g opacity="0.6">
<g opacity="0.6">
<path opacity="0.6" d="M51.897 17.8603V23.7245L57.1059 20.7924V14.9282L51.897 17.8603Z" fill="black"/>
</g>
</g>
<g opacity="0.3">
<g opacity="0.3">
<path opacity="0.3" d="M17.5557 50.6464L27.9846 56.5106L38.4136 50.6464L27.9846 44.7822L17.5557 50.6464Z" fill="black"/>
</g>
</g>
<g opacity="0.45">
<g opacity="0.45">
<path opacity="0.45" d="M27.9846 44.7822V56.5106L17.5557 50.6464V38.918L27.9846 44.7822Z" fill="black"/>
</g>
</g>
<g opacity="0.45">
<g opacity="0.45">
<path opacity="0.45" d="M38.4136 38.9179V50.6463L27.9846 44.7821V33.0537L38.4136 38.9179Z" fill="black"/>
</g>
</g>
<g opacity="0.6">
<g opacity="0.6">
<path opacity="0.6" d="M27.9846 44.7822V56.5106L38.4136 50.6464V38.918L27.9846 44.7822Z" fill="black"/>
</g>
</g>
<g opacity="0.6">
<g opacity="0.6">
<path opacity="0.6" d="M17.5557 38.9179V50.6463L27.9846 44.7821V33.0537L17.5557 38.9179Z" fill="black"/>
</g>
</g>
<g opacity="0.8">
<g opacity="0.8">
<path opacity="0.8" d="M39.5132 25.0346L44.7221 27.9668L49.9422 25.0346L44.7221 22.1025L39.5132 25.0346Z" fill="black"/>
</g>
</g>
<g opacity="0.8">
<g opacity="0.8">
<path opacity="0.8" d="M17.5557 38.9179L27.9846 44.7821L38.4136 38.9179L27.9846 33.0537L17.5557 38.9179Z" fill="black"/>
</g>
</g>
<g opacity="0.3">
<g opacity="0.3">
<path opacity="0.3" d="M40.8901 50.6464L51.308 56.5106L61.737 50.6464L51.308 44.7822L40.8901 50.6464Z" fill="black"/>
</g>
</g>
<g opacity="0.45">
<g opacity="0.45">
<path opacity="0.45" d="M51.308 44.7822V56.5106L40.8901 50.6464V38.918L51.308 44.7822Z" fill="black"/>
</g>
</g>
<g opacity="0.45">
<g opacity="0.45">
<path opacity="0.45" d="M61.7371 38.9179V50.6463L51.3081 44.7821V33.0537L61.7371 38.9179Z" fill="black"/>
</g>
</g>
<g opacity="0.6">
<g opacity="0.6">
<path opacity="0.6" d="M51.3081 44.7822V56.5106L61.7371 50.6464V38.918L51.3081 44.7822Z" fill="black"/>
</g>
</g>
<g opacity="0.6">
<g opacity="0.6">
<path opacity="0.6" d="M40.8901 38.9179V50.6463L51.308 44.7821V33.0537L40.8901 38.9179Z" fill="black"/>
</g>
</g>
<g opacity="0.8">
<g opacity="0.8">
<path opacity="0.8" d="M40.8901 38.9179L51.308 44.7821L61.737 38.9179L51.308 33.0537L40.8901 38.9179Z" fill="black"/>
</g>
</g>
<g opacity="0.6">
<g opacity="0.6">
<path opacity="0.6" d="M39.5132 19.1709V25.0351L44.7221 22.103V16.2388L39.5132 19.1709Z" fill="black"/>
</g>
</g>
<g opacity="0.3">
<g opacity="0.3">
<path opacity="0.3" d="M29.0842 30.8994L39.5132 36.7636L49.9422 30.8994L39.5132 25.0352L29.0842 30.8994Z" fill="black"/>
</g>
</g>
<g opacity="0.45">
<g opacity="0.45">
<path opacity="0.45" d="M39.5132 25.0351V36.7635L29.0842 30.8993V19.1709L39.5132 25.0351Z" fill="black"/>
</g>
</g>
<g opacity="0.6">
<g opacity="0.6">
<path opacity="0.6" d="M29.0842 19.1709V30.8993L39.5132 25.0351V13.3066L29.0842 19.1709Z" fill="black"/>
</g>
</g>
<g opacity="0.6">
<g opacity="0.6">
<path opacity="0.6" d="M44.7221 27.9667V22.1025L39.5132 25.0346V30.8989V36.7631L44.7221 33.831L49.9422 30.8989V25.0346L44.7221 27.9667Z" fill="black"/>
</g>
</g>
<g opacity="0.45">
<g opacity="0.45">
<path opacity="0.45" d="M44.7221 16.2387L39.5132 13.3066V25.0351L49.9422 30.8993V25.0351L44.7221 22.103V16.2387Z" fill="black"/>
</g>
</g>
<g opacity="0.8">
<g opacity="0.8">
<path opacity="0.8" d="M39.5132 13.3066L44.7221 16.2387L39.5132 19.1709V25.0351L29.0842 19.1709L39.5132 13.3066Z" fill="black"/>
</g>
</g>
<g opacity="0.8">
<g opacity="0.8">
<path opacity="0.8" d="M46.6768 14.9282L51.8968 17.8603L57.1057 14.9282L51.8968 11.9961L46.6768 14.9282Z" fill="black"/>
</g>
</g>
<g opacity="0.8">
<g opacity="0.8">
<path opacity="0.8" d="M27.4849 65.9624C27.4849 67.0397 26.3631 67.5395 25.4413 67.5395C24.4417 67.5395 23.3533 67.1508 23.3533 65.9846C23.3533 65.7847 23.3644 65.6403 23.6087 65.6403C23.7309 65.6403 23.7753 65.7958 23.7753 65.8846C23.7753 66.8842 24.575 67.1286 25.4413 67.1286C26.1188 67.1286 27.0628 66.7954 27.0628 65.9846C27.0628 64.463 23.4199 65.3626 23.4199 63.5967C23.4199 62.586 24.5528 62.3306 25.3524 62.3306C26.3076 62.3306 27.3627 62.6749 27.3627 63.8077C27.3627 63.9299 27.2405 64.0076 27.1406 64.0076C27.0073 64.0076 26.9407 63.8855 26.9407 63.7855C26.9073 63.5412 26.8629 63.3746 26.6963 63.1858C26.3964 62.8415 25.7856 62.7637 25.3524 62.7637C24.8193 62.7637 23.842 62.8859 23.842 63.5967C23.842 64.8517 27.4849 63.9965 27.4849 65.9624Z" fill="black"/>
<path opacity="0.8" d="M35.8034 62.5416C35.8034 62.6304 34.2485 66.9509 34.093 67.3507C34.0597 67.4729 33.9708 67.484 33.8709 67.484C33.7598 67.484 33.6932 67.4729 33.6487 67.3507L32.1383 63.1191L30.6278 67.3507C30.5945 67.4729 30.5056 67.484 30.4057 67.484C30.2946 67.484 30.2058 67.4729 30.1835 67.3507C30.028 66.962 28.4731 62.6304 28.4731 62.5416C28.4731 62.4194 28.562 62.3306 28.6842 62.3306C28.773 62.3306 28.8508 62.375 28.8841 62.4638L30.4057 66.7398L31.9272 62.4638C31.9606 62.3528 32.0494 62.3306 32.1383 62.3306C32.2493 62.3306 32.316 62.3639 32.3604 62.4638L33.8709 66.7398L35.3925 62.4638C35.4258 62.375 35.5035 62.3306 35.5924 62.3306C35.7034 62.3306 35.8034 62.4194 35.8034 62.5416Z" fill="black"/>
<path opacity="0.8" d="M41.7787 62.5415V67.1506C41.7787 67.2728 41.6898 67.3617 41.5677 67.3617C41.4455 67.3617 41.3566 67.2728 41.3566 67.1506V66.1844C40.9346 66.9507 40.146 67.4949 39.2353 67.4949C37.8137 67.4949 36.803 66.2288 36.803 64.8627C36.803 63.5077 37.8137 62.2305 39.2353 62.2305C40.146 62.2305 40.9235 62.7747 41.3566 63.541V62.5303C41.3566 62.4193 41.4455 62.3193 41.5677 62.3193C41.6898 62.3304 41.7787 62.4415 41.7787 62.5415ZM41.2456 64.8738C41.2456 63.741 40.4237 62.6636 39.2353 62.6636C38.058 62.6636 37.225 63.741 37.225 64.8738C37.225 66.0067 38.058 67.084 39.2353 67.084C40.4348 67.0729 41.2456 66.0067 41.2456 64.8738Z" fill="black"/>
<path opacity="0.8" d="M46.1326 62.5858C46.1326 62.7191 46.0549 62.7968 45.9327 62.8079C44.6888 62.9856 44.1335 64.0074 44.1335 65.1847V67.2172C44.1335 67.3394 44.0446 67.4282 43.9224 67.4282C43.8003 67.4282 43.7114 67.3394 43.7114 67.2172V62.608C43.7114 62.4858 43.8003 62.397 43.9224 62.397C44.0446 62.397 44.1335 62.4858 44.1335 62.608V63.5409C44.4778 62.9523 45.1775 62.397 45.8994 62.397C46.0105 62.397 46.1326 62.4636 46.1326 62.5858Z" fill="black"/>
<path opacity="0.8" d="M55.9062 64.5182V67.2281C55.9062 67.3503 55.7952 67.4392 55.6952 67.4392C55.5731 67.4392 55.4842 67.3503 55.4842 67.2281V64.5182C55.4842 63.6074 54.9733 62.7189 53.9626 62.7189C52.6965 62.7189 52.2078 64.0739 52.2078 65.1401V67.2281C52.2078 67.3503 52.0967 67.4392 51.9968 67.4392C51.8746 67.4392 51.7857 67.3503 51.7857 67.2281V64.5182C51.7857 63.6074 51.2748 62.7189 50.2642 62.7189C48.9758 62.7189 48.4538 63.7296 48.4982 65.0735C48.4982 65.1068 48.5093 65.1623 48.4982 65.1846V67.2281C48.4982 67.3503 48.4094 67.4392 48.2872 67.4392C48.165 67.4392 48.0762 67.3503 48.0762 67.2281V62.6079C48.0762 62.4857 48.165 62.3968 48.2872 62.3968C48.4094 62.3968 48.4982 62.4857 48.4982 62.6079V63.3742C48.8647 62.7189 49.5089 62.2969 50.2642 62.2969C51.1305 62.2969 51.7857 62.8411 52.0634 63.6408C52.4077 62.8522 53.0963 62.2969 53.9626 62.2969C55.1954 62.2969 55.9062 63.3742 55.9062 64.5182Z" fill="black"/>
</g>
</g>
</svg>
