<svg width="49" height="47" viewBox="0 0 49 47" fill="none" xmlns="http://www.w3.org/2000/svg">
<g opacity="0.45">
<g opacity="0.45">
<path opacity="0.45" d="M43.2982 3.442V9.56429L37.5957 6.50315V0.380859L43.2982 3.442Z" fill="#010101"/>
</g>
</g>
<g opacity="0.6">
<g opacity="0.6">
<path opacity="0.6" d="M37.5957 6.50304V12.6253L43.2982 9.56419V3.44189L37.5957 6.50304Z" fill="#010101"/>
</g>
</g>
<g opacity="0.3">
<g opacity="0.3">
<path opacity="0.3" d="M0 40.7321L11.4173 46.8544L22.8346 40.7321L11.4173 34.6099L0 40.7321Z" fill="#010101"/>
</g>
</g>
<g opacity="0.45">
<g opacity="0.45">
<path opacity="0.45" d="M11.4173 34.6101V46.8547L0 40.7324V28.4878L11.4173 34.6101Z" fill="#010101"/>
</g>
</g>
<g opacity="0.45">
<g opacity="0.45">
<path opacity="0.45" d="M22.8348 28.4875V40.7321L11.4175 34.6098V22.3652L22.8348 28.4875Z" fill="#010101"/>
</g>
</g>
<g opacity="0.6">
<g opacity="0.6">
<path opacity="0.6" d="M11.4175 34.6101V46.8547L22.8348 40.7324V28.4878L11.4175 34.6101Z" fill="#010101"/>
</g>
</g>
<g opacity="0.6">
<g opacity="0.6">
<path opacity="0.6" d="M0 28.4875V40.7321L11.4173 34.6098V22.3652L0 28.4875Z" fill="#010101"/>
</g>
</g>
<g opacity="0.8">
<g opacity="0.8">
<path opacity="0.8" d="M24.0381 13.9938L29.7406 17.0549L35.4554 13.9938L29.7406 10.9326L24.0381 13.9938Z" fill="#010101"/>
</g>
</g>
<g opacity="0.8">
<g opacity="0.8">
<path opacity="0.8" d="M0 28.4875L11.4173 34.6098L22.8346 28.4875L11.4173 22.3652L0 28.4875Z" fill="#010101"/>
</g>
</g>
<g opacity="0.3">
<g opacity="0.3">
<path opacity="0.3" d="M25.5461 40.7321L36.9513 46.8544L48.3686 40.7321L36.9513 34.6099L25.5461 40.7321Z" fill="#010101"/>
</g>
</g>
<g opacity="0.45">
<g opacity="0.45">
<path opacity="0.45" d="M36.9513 34.6101V46.8547L25.5461 40.7324V28.4878L36.9513 34.6101Z" fill="#010101"/>
</g>
</g>
<g opacity="0.45">
<g opacity="0.45">
<path opacity="0.45" d="M48.3682 28.4875V40.7321L36.9509 34.6098V22.3652L48.3682 28.4875Z" fill="#010101"/>
</g>
</g>
<g opacity="0.6">
<g opacity="0.6">
<path opacity="0.6" d="M36.9509 34.6101V46.8547L48.3682 40.7324V28.4878L36.9509 34.6101Z" fill="#010101"/>
</g>
</g>
<g opacity="0.6">
<g opacity="0.6">
<path opacity="0.6" d="M25.5461 28.4875V40.7321L36.9513 34.6098V22.3652L25.5461 28.4875Z" fill="#010101"/>
</g>
</g>
<g opacity="0.8">
<g opacity="0.8">
<path opacity="0.8" d="M25.5461 28.4875L36.9513 34.6098L48.3686 28.4875L36.9513 22.3652L25.5461 28.4875Z" fill="#010101"/>
</g>
</g>
<g opacity="0.6">
<g opacity="0.6">
<path opacity="0.6" d="M24.0381 7.8712V13.9935L29.7407 10.9323V4.81006L24.0381 7.8712Z" fill="#010101"/>
</g>
</g>
<g opacity="0.3">
<g opacity="0.3">
<path opacity="0.3" d="M12.6211 20.1162L24.0384 26.2385L35.4557 20.1162L24.0384 13.9939L12.6211 20.1162Z" fill="#010101"/>
</g>
</g>
<g opacity="0.45">
<g opacity="0.45">
<path opacity="0.45" d="M24.0384 13.9939V26.2384L12.6211 20.1162V7.87158L24.0384 13.9939Z" fill="#010101"/>
</g>
</g>
<g opacity="0.6">
<g opacity="0.6">
<path opacity="0.6" d="M12.6211 7.87131V20.1159L24.0384 13.9936V1.74902L12.6211 7.87131Z" fill="#010101"/>
</g>
</g>
<g opacity="0.6">
<g opacity="0.6">
<path opacity="0.6" d="M29.7406 17.0549V10.9326L24.0381 13.9938V20.116V26.2383L29.7406 23.1772L35.4554 20.116V13.9938L29.7406 17.0549Z" fill="#010101"/>
</g>
</g>
<g opacity="0.45">
<g opacity="0.45">
<path opacity="0.45" d="M29.7406 4.81017L24.0381 1.74902V13.9936L35.4554 20.1159V13.9936L29.7406 10.9325V4.81017Z" fill="#010101"/>
</g>
</g>
<g opacity="0.8">
<g opacity="0.8">
<path opacity="0.8" d="M24.0384 1.74902L29.7409 4.81017L24.0384 7.87131V13.9936L12.6211 7.87131L24.0384 1.74902Z" fill="#010101"/>
</g>
</g>
<g opacity="0.8">
<g opacity="0.8">
<path opacity="0.8" d="M31.8809 3.442L37.5956 6.50314L43.2981 3.442L37.5956 0.380859L31.8809 3.442Z" fill="#010101"/>
</g>
</g>
</svg>
