<svg width="214" height="47" viewBox="0 0 214 47" fill="none" xmlns="http://www.w3.org/2000/svg">
<g clip-path="url(#clip0)">
<path d="M34.3731 9.12742V34.3731H0V0H25.2456L34.3731 9.12742Z" fill="white"/>
<path d="M9.19527 18.2549H13.0531C11.2359 19.5524 10.3389 20.5223 9.10259 20.5223C7.80009 20.4147 8.17578 19.3058 8.49685 18.6786C8.56371 18.5511 8.66407 18.4443 8.78715 18.3696C8.91022 18.2949 9.05132 18.2553 9.19527 18.2549Z" fill="#727276"/>
<path d="M9.5577 28.7328H5.4003C5.39074 28.7327 5.38134 28.7304 5.37284 28.726C5.36434 28.7216 5.35699 28.7153 5.35136 28.7076C5.34573 28.6999 5.34198 28.691 5.34042 28.6815C5.33886 28.6721 5.33953 28.6625 5.34237 28.6533L5.75116 27.4071C5.76238 27.3726 5.78089 27.3409 5.80543 27.3142C5.82998 27.2874 5.85998 27.2663 5.89341 27.2521C5.92684 27.238 5.96292 27.2312 5.9992 27.2323C6.03548 27.2333 6.07111 27.2421 6.10368 27.2582C7.22167 27.8081 8.38436 28.2621 9.57921 28.6153C9.5948 28.6181 9.60861 28.627 9.61761 28.6401C9.62661 28.6531 9.63006 28.6692 9.62721 28.6848C9.62436 28.7004 9.61543 28.7142 9.60239 28.7232C9.58936 28.7322 9.57328 28.7356 9.5577 28.7328Z" fill="#727276"/>
<path d="M25.1794 18.2549H21.3232C23.1438 19.5524 24.0358 20.5272 25.2787 20.5272C26.5796 20.4196 26.2055 19.3108 25.8828 18.6835C25.8164 18.5543 25.7156 18.4458 25.5915 18.3702C25.4674 18.2946 25.3248 18.2547 25.1794 18.2549Z" fill="#727276"/>
<path d="M24.8254 28.7328H28.9844C28.994 28.7328 29.0034 28.7305 29.0118 28.7261C29.0203 28.7218 29.0276 28.7154 29.0331 28.7076C29.0387 28.6998 29.0422 28.6908 29.0435 28.6814C29.0449 28.672 29.0439 28.6623 29.0407 28.6533L28.6319 27.4071C28.6207 27.3726 28.6022 27.3409 28.5776 27.3142C28.5531 27.2874 28.5231 27.2663 28.4897 27.2521C28.4562 27.238 28.4201 27.2312 28.3839 27.2323C28.3476 27.2333 28.312 27.2421 28.2794 27.2582C27.1614 27.8081 25.9987 28.2621 24.8039 28.6153C24.7883 28.6181 24.7745 28.627 24.7655 28.6401C24.7565 28.6531 24.753 28.6692 24.7559 28.6848C24.7587 28.7004 24.7676 28.7142 24.7807 28.7232C24.7937 28.7322 24.8098 28.7356 24.8254 28.7328Z" fill="#727276"/>
<path d="M30.0751 18.4285C24.4033 26.356 22.2965 18.9779 18.8772 18.9779C17.5383 18.9779 17.1875 20.0587 17.1875 20.5336C17.1875 20.0587 16.835 18.9779 15.4977 18.9779C12.0718 18.9779 9.97159 26.356 4.29819 18.4285C4.18896 27.1223 12.4558 29.1861 17.1875 23.7411C21.9175 29.1778 30.1843 27.1223 30.0751 18.4285Z" fill="#727276"/>
<path d="M29.4097 15.1699C28.7725 15.5108 28.0691 15.8484 27.4684 16.1066C27.2712 16.1909 27.0589 16.2343 26.8444 16.234H7.53038C7.31538 16.2343 7.10256 16.1909 6.90479 16.1066C6.30401 15.8484 5.60063 15.5108 4.9651 15.1699C4.90715 15.1395 4.86177 15.0896 4.83695 15.0291C4.81212 14.9685 4.80945 14.9012 4.82939 14.8388C4.90552 14.5873 5.04951 14.1388 5.25308 13.639C5.26782 13.6033 5.2898 13.571 5.31762 13.5442C5.34544 13.5175 5.3785 13.4967 5.41473 13.4834C5.45095 13.47 5.48955 13.4643 5.5281 13.4666C5.56665 13.4688 5.6043 13.4791 5.6387 13.4966C6.25602 13.8111 6.74921 14.0329 7.21096 14.2265V10.4696C7.21074 10.4035 7.23423 10.3395 7.27716 10.2892C8.48658 8.83443 10.0014 7.66377 11.7142 6.86033C13.4269 6.05689 15.2956 5.64038 17.1874 5.64038C19.0792 5.64038 20.9479 6.05689 22.6606 6.86033C24.3734 7.66377 25.8882 8.83443 27.0977 10.2892C27.1406 10.3395 27.1641 10.4035 27.1639 10.4696V14.2331C27.6239 14.0395 28.1171 13.8177 28.7361 13.5032C28.7704 13.4857 28.8079 13.4755 28.8464 13.4732C28.8848 13.471 28.9233 13.4767 28.9594 13.4901C28.9955 13.5035 29.0284 13.5242 29.056 13.551C29.0837 13.5777 29.1055 13.6099 29.1201 13.6456C29.3253 14.1421 29.4693 14.5939 29.5438 14.8455C29.5618 14.9067 29.5583 14.9723 29.534 15.0313C29.5096 15.0903 29.4657 15.1392 29.4097 15.1699Z" fill="#727276"/>
</g>
<path d="M183.883 16.123H180.401C180.096 16.1139 179.807 15.9869 179.595 15.7692C179.383 15.5514 179.265 15.26 179.267 14.9572V12.6713C179.267 12.5175 179.297 12.3651 179.357 12.223C179.416 12.0809 179.503 11.9518 179.613 11.8431C179.722 11.7345 179.852 11.6483 179.996 11.5896C180.139 11.531 180.292 11.5009 180.447 11.5012H183.883V0.961352C183.883 0.83466 183.908 0.709166 183.957 0.592117C184.006 0.475068 184.077 0.368783 184.168 0.279401C184.258 0.190018 184.366 0.119309 184.484 0.0713572C184.602 0.0234051 184.728 -0.000839971 184.856 2.22127e-05H187.569C187.817 2.22127e-05 188.055 0.0978677 188.231 0.272034C188.406 0.4462 188.505 0.68242 188.505 0.928728V11.5012H191.919C192.24 11.5 192.548 11.6244 192.777 11.8475C193.007 12.0706 193.138 12.3744 193.143 12.6931V14.9463C193.143 15.2584 193.018 15.5577 192.796 15.7783C192.574 15.999 192.273 16.123 191.958 16.123H188.498V25.323C188.496 25.9289 188.614 26.5293 188.845 27.0899C189.077 27.6504 189.417 28.1602 189.847 28.5901C190.277 29.0199 190.788 29.3614 191.351 29.5949C191.914 29.8285 192.518 29.9496 193.128 29.9513V34.5187C191.804 34.5379 190.492 34.2715 189.282 33.7379C188.905 33.5704 186.069 32.2677 184.665 29.1379C184.129 27.9388 183.857 26.6395 183.868 25.3274C183.894 22.2998 183.864 19.144 183.883 16.123Z" fill="white"/>
<path d="M121.064 20.7207C120.531 18.1213 119.11 15.7847 117.041 14.1068C114.972 12.4289 112.382 11.513 109.711 11.5142C108.929 11.5138 108.149 11.5918 107.383 11.7469C105.161 12.2018 103.122 13.2934 101.518 14.8867C99.9135 16.4801 98.8148 18.5053 98.3572 20.712C98.2013 21.4788 98.1242 22.2592 98.1273 23.0414V45.2825C98.1273 45.4769 98.205 45.6633 98.3435 45.8008C98.4819 45.9382 98.6696 46.0155 98.8654 46.0155H102.026C102.219 46.0149 102.404 45.9383 102.54 45.8026C102.676 45.6668 102.753 45.4829 102.753 45.2912V32.2415C104.121 33.2666 105.703 33.9748 107.383 34.3142C107.91 34.4245 108.445 34.4972 108.984 34.5317H110.436C110.966 34.5014 111.494 34.4331 112.015 34.3273C114.637 33.8003 116.994 32.3882 118.686 30.3309C120.379 28.2736 121.302 25.6979 121.299 23.0414C121.3 22.262 121.221 21.4845 121.064 20.7207ZM116.277 25.3186C115.931 26.2959 115.368 27.1835 114.63 27.9161C113.893 28.6486 112.999 29.2073 112.015 29.5511C111.454 29.7482 110.869 29.871 110.276 29.9165C110.088 29.9339 109.899 29.9404 109.711 29.9404C109.522 29.9404 109.332 29.9404 109.146 29.9165C107.701 29.798 106.33 29.2337 105.224 28.3026C104.118 27.3716 103.333 26.1204 102.979 24.7242C102.625 23.3281 102.719 21.8569 103.249 20.5168C103.779 19.1766 104.718 18.0346 105.933 17.2506C107.149 16.4666 108.582 16.0798 110.03 16.1446C111.478 16.2093 112.87 16.7223 114.01 17.6116C115.15 18.5009 115.982 19.7221 116.388 21.1041C116.795 22.4861 116.756 23.9597 116.277 25.3186Z" fill="white"/>
<path d="M146.551 20.7208C145.976 17.9252 144.376 15.4415 142.061 13.7515C139.746 12.0614 136.881 11.2858 134.023 11.5749C131.164 11.864 128.516 13.1974 126.592 15.3162C124.668 17.435 123.605 20.1882 123.609 23.0415V45.2826C123.609 45.477 123.687 45.6634 123.825 45.8008C123.964 45.9383 124.151 46.0155 124.347 46.0155H127.51C127.606 46.0155 127.7 45.9968 127.789 45.9604C127.877 45.924 127.958 45.8707 128.025 45.8034C128.093 45.7361 128.147 45.6563 128.184 45.5684C128.22 45.4806 128.239 45.3864 128.239 45.2913V32.2415C129.607 33.2666 131.189 33.9748 132.869 34.3143C133.397 34.4246 133.932 34.4973 134.47 34.5318H135.922C136.453 34.5013 136.98 34.433 137.501 34.3273C140.124 33.8026 142.482 32.3911 144.175 30.3332C145.867 28.2753 146.789 25.6985 146.783 23.0415C146.783 22.2622 146.706 21.4848 146.551 20.7208ZM141.763 25.3187C141.416 26.2957 140.854 27.1831 140.116 27.9156C139.379 28.6481 138.485 29.207 137.501 29.5511C136.939 29.7484 136.354 29.8713 135.76 29.9165C135.574 29.9339 135.385 29.9404 135.195 29.9404C135.004 29.9404 134.818 29.9404 134.63 29.9165C133.185 29.7976 131.814 29.233 130.709 28.3017C129.603 27.3704 128.818 26.1191 128.465 24.723C128.111 23.3268 128.206 21.8558 128.736 20.5159C129.266 19.1759 130.204 18.0341 131.42 17.2503C132.636 16.4665 134.069 16.08 135.517 16.1448C136.965 16.2097 138.357 16.7227 139.497 17.6121C140.637 18.5014 141.468 19.7225 141.874 21.1044C142.281 22.4863 142.242 23.9598 141.763 25.3187Z" fill="white"/>
<path d="M178.877 20.7142C178.702 19.9095 178.461 19.1483 178.132 18.4088C177.782 17.5823 177.322 16.821 176.774 16.1251C176.774 16.1251 176.774 16.1251 176.752 16.1033C176.095 15.2333 175.329 14.4721 174.453 13.8196C174.431 13.8196 174.431 13.7979 174.409 13.7979C173.117 12.7974 171.54 12.0796 169.832 11.7317C169.087 11.6012 168.32 11.5142 167.532 11.5142C166.744 11.5142 165.955 11.6012 165.21 11.7534C163.524 12.1014 161.947 12.8191 160.611 13.7979C160.589 13.7979 160.589 13.8196 160.567 13.8196C159.691 14.4721 158.925 15.2333 158.268 16.1033C158.268 16.1033 158.268 16.1033 158.246 16.1251C157.72 16.821 157.26 17.604 156.888 18.4088C156.603 19.1265 156.341 19.9095 156.187 20.7142C156.034 21.4537 155.946 22.2149 155.946 23.0197V23.0414C155.946 23.8244 156.034 24.5856 156.165 25.3251C156.319 26.1299 156.581 26.8911 156.888 27.6306C157.238 28.4571 157.698 29.2183 158.224 29.9143C158.224 29.9143 158.224 29.9143 158.224 29.936C158.881 30.806 159.669 31.589 160.546 32.2415C161.882 33.242 163.458 33.9597 165.167 34.3077C165.692 34.4164 166.218 34.4817 166.765 34.5252H168.211C168.758 34.5034 169.284 34.4164 169.788 34.3294C171.496 33.9814 173.095 33.2637 174.431 32.2632C175.307 31.6107 176.095 30.8278 176.752 29.9578C176.752 29.9578 176.752 29.9578 176.752 29.936C177.059 29.5228 177.366 29.066 177.607 28.6093C177.847 28.1743 177.519 27.6523 177.037 27.6523H173.27C172.942 27.6523 172.635 27.7828 172.394 28.0003C171.671 28.6963 170.795 29.24 169.832 29.588C169.284 29.7838 168.693 29.9143 168.101 29.9578C168.036 29.9578 167.97 29.9578 167.904 29.9795C167.773 29.9795 167.663 29.9795 167.532 29.9795C167.401 29.9795 167.291 29.9795 167.16 29.9795C167.094 29.9795 167.028 29.9795 166.963 29.9578C166.349 29.9143 165.758 29.7838 165.21 29.588C164.094 29.1965 163.108 28.5223 162.341 27.6741C161.75 26.9998 161.268 26.2386 160.962 25.3686H177.76C178.439 25.3686 179.008 24.8466 179.074 24.1724C179.118 23.8027 179.118 23.4547 179.118 23.0849V23.0632C179.118 22.2149 179.03 21.4537 178.877 20.7142ZM160.984 20.7142C161.115 20.3662 161.29 19.9312 161.575 19.4745C161.728 19.2135 161.991 18.822 162.385 18.387C163.152 17.5388 164.137 16.8863 165.232 16.4948C165.955 16.2338 166.744 16.1033 167.554 16.1033C168.364 16.1033 169.131 16.2338 169.854 16.4948C170.971 16.8863 171.956 17.5388 172.723 18.387C173.204 18.909 173.599 19.518 173.905 20.1705C174.015 20.4097 173.84 20.6925 173.577 20.6925C169.35 20.7142 165.167 20.7142 160.984 20.7142Z" fill="white"/>
<path d="M65.6675 0.750603V13.8286C64.2779 12.7931 62.6717 12.0811 60.9677 11.7453C59.2637 11.4095 57.5054 11.4585 55.823 11.8886C54.1406 12.3187 52.5771 13.119 51.2482 14.2303C49.9194 15.3415 48.8591 16.7353 48.1459 18.3084C47.4326 19.8816 47.0847 21.5938 47.1278 23.3185C47.171 25.0432 47.604 26.7362 48.395 28.2723C49.186 29.8083 50.3146 31.1481 51.6974 32.1925C53.0802 33.2369 54.6817 33.9591 56.3835 34.3058C56.9058 34.4139 57.4348 34.4865 57.967 34.5233H59.4541C61.7054 34.3829 63.8658 33.5897 65.6675 32.2418V33.8556C65.668 34.0329 65.7394 34.2027 65.8658 34.3279C65.9922 34.453 66.1635 34.5233 66.342 34.5233H69.5527C69.7504 34.5233 69.94 34.4455 70.08 34.3068C70.22 34.1682 70.299 33.9801 70.2996 33.7838V0.802802C70.2996 0.697409 70.2786 0.593047 70.238 0.495677C70.1974 0.398306 70.1379 0.309832 70.0628 0.235308C69.9878 0.160784 69.8987 0.101668 69.8007 0.0613353C69.7026 0.0210029 69.5975 0.000244141 69.4914 0.000244141H66.4252C66.2246 0.000243309 66.0322 0.0792293 65.8902 0.219887C65.7481 0.360544 65.668 0.551396 65.6675 0.750603ZM65.2776 25.3276C64.9315 26.3049 64.3689 27.1925 63.6312 27.9251C62.8936 28.6576 61.9997 29.2163 61.0156 29.5601C60.4547 29.7572 59.87 29.88 59.2767 29.9254C59.0883 29.9428 58.9 29.9494 58.7116 29.9494C58.5233 29.9494 58.3328 29.9494 58.1466 29.9254C56.7018 29.808 55.3302 29.2448 54.2237 28.3148C53.1173 27.3847 52.3314 26.1343 51.9761 24.7386C51.6209 23.343 51.714 21.8719 52.2425 20.5314C52.7709 19.1909 53.7083 18.0481 54.9234 17.2629C56.1384 16.4778 57.5702 16.0896 59.0185 16.1528C60.4667 16.216 61.8587 16.7274 62.9997 17.6153C64.1408 18.5032 64.9736 19.7233 65.3817 21.1047C65.7897 22.486 65.7526 23.9595 65.2754 25.3189L65.2776 25.3276Z" fill="white"/>
<path d="M152.902 0H149.937C149.477 0 149.104 0.370029 149.104 0.826483V33.6879C149.104 34.1443 149.477 34.5144 149.937 34.5144H152.902C153.362 34.5144 153.734 34.1443 153.734 33.6879V0.826483C153.734 0.370029 153.362 0 152.902 0Z" fill="white"/>
<path d="M95.5691 20.7207C95.2211 19.0309 94.495 17.4403 93.4447 16.0666C92.3943 14.693 91.0465 13.5713 89.5009 12.7845C87.9552 11.9977 86.2513 11.566 84.515 11.5212C82.7788 11.4764 81.0546 11.8197 79.4699 12.5258C77.8852 13.2318 76.4806 14.2825 75.3599 15.6002C74.2391 16.9179 73.4309 18.4688 72.995 20.1385C72.5591 21.8081 72.5066 23.5536 72.8414 25.2461C73.1763 26.9386 73.8899 28.5347 74.9295 29.9164C75.5914 30.7938 76.3753 31.5737 77.2576 32.2327C78.6267 33.2579 80.2093 33.9661 81.8896 34.3055C82.4174 34.4158 82.9524 34.4885 83.4906 34.523H84.9405C85.4704 34.4928 85.9974 34.4245 86.5174 34.3185C88.2059 33.9814 89.7964 33.2715 91.1714 32.2414V33.6878C91.1714 33.7977 91.1932 33.9064 91.2356 34.0079C91.278 34.1094 91.3401 34.2015 91.4185 34.2791C91.4968 34.3567 91.5898 34.4182 91.692 34.46C91.7943 34.5019 91.9039 34.5233 92.0146 34.523H94.9909C95.2064 34.523 95.4131 34.438 95.5655 34.2866C95.7179 34.1353 95.8035 33.9301 95.8035 33.7161V23.0414C95.8045 22.262 95.7259 21.4844 95.5691 20.7207ZM90.7815 25.3186C90.4348 26.2958 89.872 27.1834 89.1345 27.9163C88.397 28.6491 87.5034 29.2084 86.5196 29.5532C85.9591 29.749 85.3752 29.8711 84.7828 29.9164C84.5944 29.9338 84.4061 29.9403 84.2177 29.9403C84.0294 29.9403 83.8389 29.9403 83.6527 29.9164C83.0549 29.8687 82.4658 29.7437 81.9006 29.5445C80.3546 28.9996 79.0522 27.9297 78.2234 26.5238C77.3945 25.1178 77.0926 23.4663 77.3708 21.8608C77.649 20.2552 78.4896 18.7989 79.744 17.7491C80.9984 16.6992 82.586 16.1232 84.2265 16.1229C85.3381 16.1232 86.4334 16.3878 87.4209 16.8946C88.4084 17.4014 89.2594 18.1357 89.9026 19.0359C90.5459 19.9362 90.9627 20.9764 91.1183 22.0694C91.2739 23.1624 91.1637 24.2765 90.7969 25.3186H90.7815Z" fill="white"/>
<path d="M195.458 27.7784C195.457 27.7301 195.471 27.6827 195.5 27.6436C195.516 27.6256 195.536 27.6112 195.558 27.6014C195.58 27.5917 195.605 27.5868 195.629 27.587H199.79C199.852 27.5875 199.912 27.6095 199.96 27.6492C200.007 27.6889 200.04 27.7438 200.051 27.8045C200.489 29.8533 202.022 31.0561 204.869 31.0561C207.651 31.0561 209.317 29.9164 209.317 28.1221V28.1003C209.317 26.6648 208.505 25.8427 206.089 25.2729L202.412 24.4507C198.134 23.4785 196.017 21.4537 196.017 18.2217V18.2021C196.017 14.2328 199.521 11.5098 204.698 11.5098C210.022 11.5098 213.24 14.4438 213.459 18.2217C213.462 18.2538 213.458 18.2863 213.448 18.3169C213.437 18.3476 213.421 18.3757 213.399 18.3997C213.377 18.4236 213.351 18.4428 213.321 18.4559C213.291 18.4691 213.259 18.476 213.227 18.4761H209.411C209.339 18.4763 209.268 18.4512 209.212 18.4051C209.156 18.359 209.118 18.2949 209.105 18.2239C209.005 17.6032 208.752 17.0166 208.369 16.5165C207.107 14.8896 204.961 15.018 204.694 15.018C202.215 15.018 200.653 16.1794 200.653 17.952V17.9737C200.653 19.3461 201.573 20.2748 203.989 20.8447L207.646 21.6668C208.014 21.6886 211.658 21.9604 213.277 24.7944C213.788 25.6775 214.037 26.6865 213.995 27.7045C213.901 29.6206 212.383 31.2823 212.081 31.6042C209.598 34.2446 206.014 34.5012 204.681 34.5056C202.638 34.5029 200.633 33.9545 198.877 32.9178C197.716 32.2559 196.762 31.2888 196.12 30.123C195.711 29.4062 195.484 28.6016 195.458 27.7784Z" fill="white"/>
<defs>
<clipPath id="clip0">
<rect width="34.3731" height="34.3731" fill="white"/>
</clipPath>
</defs>
</svg>
