<svg width="966" height="291" viewBox="0 0 966 291" fill="none" xmlns="http://www.w3.org/2000/svg">
<path d="M862.275 200.778C862.266 200.51 862.35 200.247 862.513 200.033C862.602 199.932 862.711 199.851 862.834 199.796C862.956 199.741 863.089 199.713 863.223 199.713H886.3C886.637 199.712 886.965 199.828 887.227 200.04C887.49 200.251 887.672 200.547 887.742 200.877C890.11 212.325 898.638 219.058 914.391 219.058C929.789 219.058 939.026 212.656 939.026 202.646V202.524C939.026 194.499 934.524 189.89 921.144 186.706L900.784 182.103C877.097 176.673 865.376 165.336 865.376 147.278V147.162C865.376 124.965 884.799 109.735 913.46 109.735C942.953 109.735 960.718 126.147 962.022 147.278C962.037 147.457 962.015 147.638 961.957 147.808C961.899 147.979 961.807 148.135 961.685 148.268C961.564 148.401 961.416 148.507 961.252 148.58C961.088 148.653 960.91 148.691 960.73 148.692H939.591C939.189 148.689 938.8 148.547 938.491 148.291C938.181 148.034 937.97 147.678 937.892 147.284C937.318 143.851 935.921 140.608 933.82 137.833C926.839 128.737 914.938 129.452 913.46 129.452C899.72 129.452 891.076 135.941 891.076 145.858V145.98C891.076 153.651 896.166 158.848 909.551 162.031L929.806 166.634C931.848 166.756 952.039 168.275 960.998 184.122C963.834 189.07 965.216 194.719 964.982 200.417C964.453 211.126 956.047 220.414 954.372 222.218C940.62 236.982 920.766 238.414 913.379 238.443C902.063 238.421 890.962 235.353 881.239 229.562C874.804 225.859 869.516 220.449 865.957 213.931C863.915 210.136 862.287 205.591 862.275 200.778Z" fill="#262629"/>
<path d="M798.252 135.465H778.863C777.188 135.465 775.581 134.799 774.396 133.613C773.211 132.428 772.546 130.821 772.546 129.144V116.341C772.547 114.599 773.24 112.929 774.471 111.697C775.703 110.465 777.372 109.772 779.113 109.771H798.252V63.7254C798.252 62.2962 798.819 60.9255 799.83 59.9148C800.84 58.9042 802.21 58.3364 803.638 58.3364H818.763C820.152 58.3364 821.483 58.8883 822.465 59.8705C823.447 60.8528 823.998 62.185 823.998 63.5741V109.777H843.009C843.888 109.777 844.758 109.95 845.57 110.287C846.382 110.623 847.12 111.117 847.741 111.739C848.363 112.361 848.855 113.099 849.191 113.912C849.527 114.725 849.699 115.596 849.699 116.475V128.894C849.699 130.643 849.004 132.32 847.768 133.557C846.532 134.793 844.856 135.488 843.108 135.488H823.998V187.004C823.998 193.795 826.695 200.308 831.495 205.11C836.295 209.912 842.806 212.61 849.594 212.61H849.64C849.653 212.61 849.666 212.615 849.676 212.623C849.685 212.632 849.691 212.644 849.693 212.657V238.263C849.693 238.27 849.691 238.276 849.689 238.282C849.686 238.289 849.682 238.294 849.677 238.298C849.672 238.303 849.666 238.306 849.66 238.308C849.654 238.31 849.647 238.311 849.64 238.31H849.594C842.788 238.31 836.049 236.964 829.765 234.348C823.481 231.733 817.776 227.9 812.978 223.071C808.181 218.241 804.385 212.51 801.81 206.207C799.235 199.905 797.93 193.155 797.973 186.346C798.066 169.38 798.159 152.419 798.252 135.465Z" fill="#262629"/>
<path d="M757.735 104.888C757.847 105.289 757.809 105.717 757.628 106.092C757.447 106.467 757.136 106.763 756.752 106.925C753.564 108.257 747.951 109.747 738.789 109.747H652.102C643.958 109.747 638.583 108.583 635.232 107.361C634.83 107.216 634.498 106.924 634.301 106.545C634.103 106.165 634.056 105.726 634.168 105.313C634.92 102.562 635.857 99.8655 636.971 97.2408C637.174 97.2595 637.372 97.3168 637.553 97.4096C640.061 98.6602 642.783 99.4226 645.575 99.656C645.83 99.6752 646.087 99.6416 646.328 99.5574C646.57 99.4733 646.792 99.3403 646.98 99.1667C647.168 98.9932 647.319 98.7828 647.422 98.5486C647.526 98.3144 647.58 98.0614 647.582 97.8053V80.8934C647.581 80.4642 647.739 80.0499 648.024 79.7295C658.841 67.4974 673.927 59.87 690.187 58.412H690.35C692.002 58.412 693.683 58.412 695.405 58.3247C697.522 58.412 699.576 58.4178 701.577 58.4062H701.751C717.415 59.8025 732.013 66.9308 742.75 78.4258C743.053 78.7493 743.221 79.1758 743.222 79.6189V97.7937C743.223 98.0498 743.277 98.3027 743.381 98.5369C743.484 98.7711 743.635 98.9815 743.823 99.1551C744.011 99.3286 744.233 99.4616 744.475 99.5458C744.717 99.63 744.973 99.6635 745.228 99.6444C748.024 99.4115 750.751 98.6492 753.262 97.398C753.457 97.302 753.67 97.2474 753.888 97.2373C754.105 97.2273 754.323 97.2621 754.526 97.3396C754.73 97.4171 754.915 97.5356 755.071 97.6878C755.227 97.84 755.349 98.0227 755.432 98.2244C756.32 100.402 757.089 102.627 757.735 104.888Z" fill="#262629"/>
<path d="M757.043 186.887H757.078C757.641 186.538 758.12 186.068 758.481 185.512C758.843 184.955 759.076 184.326 759.166 183.669C760.296 176.203 760.118 168.598 758.642 161.193C755.924 147.745 748.96 135.525 738.777 126.334C736.246 124.035 732.951 122.761 729.533 122.76H662.031C658.607 122.763 655.307 124.039 652.77 126.339C644.502 133.84 638.33 143.366 634.862 153.979C631.394 164.592 630.749 175.926 632.992 186.864C633.91 191.332 635.308 195.687 637.163 199.853C642.094 210.975 650.083 220.464 660.2 227.216C670.316 233.967 682.143 237.702 694.3 237.984C706.458 238.266 718.445 235.085 728.864 228.811C739.283 222.537 747.704 213.428 753.145 202.548C753.286 202.263 753.351 201.946 753.336 201.628C753.32 201.311 753.223 201.002 753.055 200.732C752.886 200.462 752.652 200.24 752.373 200.086C752.095 199.932 751.782 199.852 751.464 199.853H728.463C726.356 199.85 724.33 200.659 722.803 202.111C717.766 206.936 711.533 210.327 704.748 211.935C697.962 213.542 690.871 213.307 684.206 211.254C677.457 209.05 671.392 205.139 666.598 199.9C662.037 194.913 657.872 187.871 658.983 186.87C659.096 186.798 659.225 186.753 659.358 186.74C659.491 186.727 659.626 186.746 659.751 186.794C679.157 187.533 751.435 190.181 757.043 186.887ZM661.554 161.17C661.24 161.174 660.929 161.099 660.651 160.952C660.373 160.805 660.136 160.591 659.963 160.328C659.789 160.066 659.684 159.764 659.657 159.451C659.63 159.137 659.683 158.822 659.809 158.534C662.821 151.492 667.833 145.489 674.224 141.271C680.615 137.052 688.103 134.804 695.759 134.804C703.416 134.804 710.903 137.052 717.294 141.271C723.685 145.489 728.697 151.492 731.709 158.534C731.834 158.819 731.887 159.131 731.862 159.442C731.837 159.753 731.735 160.052 731.565 160.314C731.396 160.575 731.164 160.79 730.89 160.94C730.617 161.089 730.31 161.168 729.999 161.17H661.554Z" fill="#262629"/>
<path d="M597.549 58.3364H613.325C613.996 58.3364 614.661 58.4687 615.282 58.7258C615.902 58.9829 616.466 59.3597 616.941 59.8347C617.415 60.3097 617.792 60.8737 618.049 61.4943C618.306 62.1149 618.438 62.7801 618.438 63.4519V232.921C618.438 234.277 617.9 235.579 616.941 236.538C615.982 237.497 614.681 238.036 613.325 238.036H597.549C596.194 238.035 594.895 237.495 593.937 236.536C592.979 235.577 592.441 234.276 592.441 232.921V63.4345C592.446 62.0818 592.986 60.786 593.943 59.8306C594.9 58.8752 596.197 58.338 597.549 58.3364Z" fill="#262629"/>
<path d="M122.922 58.417H107.152C106.48 58.4185 105.814 58.5525 105.194 58.8113C104.573 59.0701 104.01 59.4486 103.535 59.9252C103.061 60.4019 102.685 60.9673 102.43 61.5892C102.174 62.2111 102.043 62.8774 102.044 63.5499V122.433C92.4939 115.405 81.1815 111.165 69.3658 110.186C57.5502 109.207 45.6946 111.526 35.1183 116.887C24.5419 122.247 15.6596 130.438 9.45954 140.548C3.25949 150.659 -0.0151228 162.291 5.25054e-05 174.153V174.304C0.0317867 191.211 6.73501 207.422 18.6517 219.41C30.5683 231.399 46.7345 238.195 63.6338 238.32H64.1108C77.7586 238.341 91.0537 233.984 102.044 225.89V233.671C102.041 235.029 102.577 236.334 103.535 237.297C104.493 238.261 105.794 238.805 107.152 238.809H122.922C124.282 238.806 125.585 238.263 126.545 237.3C127.504 236.336 128.043 235.031 128.041 233.671V63.5499C128.042 62.8766 127.91 62.2098 127.653 61.5874C127.396 60.9651 127.02 60.3994 126.544 59.9228C126.069 59.4462 125.504 59.0679 124.883 58.8095C124.261 58.5511 123.595 58.4178 122.922 58.417ZM102.044 173.937C102.006 184.074 97.9536 193.782 90.7749 200.935C83.5962 208.089 73.8764 212.104 63.7443 212.103C63.5872 212.103 63.4302 212.103 63.2731 212.103C53.2274 211.978 43.6333 207.908 36.5599 200.77C29.4865 193.633 25.5006 184 25.4617 173.949V173.798C25.4556 168.765 26.4421 163.779 28.3647 159.128C30.2874 154.477 33.1084 150.251 36.6662 146.692C40.224 143.133 44.4486 140.312 49.0981 138.389C53.7477 136.466 58.7307 135.48 63.7618 135.487C65.5523 135.489 67.3405 135.616 69.1135 135.865C71.4673 136.191 73.7851 136.738 76.0359 137.501C83.623 140.068 90.2144 144.951 94.8829 151.462C99.5514 157.973 102.062 165.785 102.062 173.798L102.044 173.937Z" fill="#262629"/>
<path d="M374.042 109.759H373.559C365.11 109.754 356.743 111.416 348.936 114.649C341.129 117.883 334.036 122.624 328.062 128.602C322.088 134.58 317.351 141.677 314.121 149.489C310.891 157.3 309.232 165.671 309.239 174.124V174.276C309.158 182.778 310.763 191.212 313.959 199.09C317.155 206.968 321.88 214.135 327.861 220.176C333.842 226.217 340.96 231.012 348.805 234.284C356.649 237.557 365.063 239.242 373.562 239.242C382.061 239.242 390.476 237.557 398.32 234.284C406.164 231.012 413.282 226.217 419.263 220.176C425.244 214.135 429.97 206.968 433.166 199.09C436.362 191.212 437.966 182.778 437.885 174.276V174.124C437.792 138.723 409.288 109.992 374.042 109.759ZM411.947 173.874C411.947 184.067 407.899 193.843 400.695 201.05C393.49 208.258 383.719 212.307 373.53 212.307C363.342 212.307 353.57 208.258 346.366 201.05C339.161 193.843 335.114 184.067 335.114 173.874V173.729C335.144 165.704 337.673 157.887 342.349 151.367C347.025 144.846 353.615 139.944 361.204 137.344C365.17 135.996 369.33 135.31 373.519 135.313H373.99C384.086 135.458 393.721 139.565 400.819 146.75C407.916 153.935 411.909 163.621 411.935 173.723L411.947 173.874Z" fill="#262629"/>
<path d="M403.506 166.111C403.378 165.611 403.244 165.116 403.087 164.633C402.34 162.207 401.297 159.883 399.981 157.713C399.719 157.283 399.452 156.864 399.172 156.445C399.033 156.241 398.893 156.037 398.742 155.834C397.729 154.407 396.598 153.068 395.362 151.83C390.548 147.011 384.282 143.911 377.533 143.007C377.064 142.951 376.588 142.995 376.138 143.137C375.687 143.279 375.272 143.515 374.92 143.83C374.567 144.145 374.286 144.531 374.095 144.963C373.904 145.395 373.806 145.863 373.81 146.336V151.894C373.818 152.684 374.105 153.445 374.62 154.044C375.135 154.642 375.845 155.039 376.625 155.164C380.515 155.849 384.095 157.731 386.866 160.547C389.636 163.364 391.46 166.975 392.081 170.877C392.193 171.657 392.579 172.371 393.172 172.89C393.764 173.409 394.523 173.698 395.31 173.706H400.918C401.393 173.706 401.863 173.604 402.297 173.408C402.73 173.211 403.117 172.925 403.431 172.568C403.745 172.211 403.98 171.79 404.119 171.335C404.259 170.88 404.299 170.401 404.239 169.929C404.074 168.642 403.83 167.367 403.506 166.111Z" fill="#262629"/>
<path d="M309.408 222.666V284.814C309.408 286.116 309.925 287.363 310.844 288.284C311.764 289.204 313.011 289.72 314.312 289.72H330.495C331.797 289.72 333.046 289.203 333.967 288.282C334.888 287.361 335.405 286.111 335.405 284.809V242.372C335.405 242.078 335.327 241.789 335.18 241.535C335.033 241.281 334.822 241.069 334.567 240.923C326.012 235.971 318.481 229.429 312.381 221.648C312.166 221.379 311.874 221.184 311.543 221.088C311.213 220.992 310.862 221 310.537 221.112C310.211 221.223 309.929 221.432 309.727 221.71C309.525 221.989 309.413 222.322 309.408 222.666Z" fill="#262629"/>
<path d="M516.458 110.038H515.981C498.939 110.029 482.591 116.787 470.526 128.828C458.462 140.87 451.668 157.209 451.637 174.258V174.409C451.637 178.744 452.069 183.069 452.929 187.317C456.109 202.96 464.986 216.862 477.835 226.325C490.684 235.788 506.59 240.138 522.464 238.529C538.338 236.921 553.049 229.469 563.741 217.621C574.433 205.772 580.343 190.372 580.324 174.409V174.258C580.285 157.294 573.554 141.032 561.594 129.006C549.635 116.98 533.414 110.164 516.458 110.038ZM554.095 173.938C554.102 179 553.112 184.013 551.182 188.691C549.251 193.37 546.418 197.621 542.843 201.203C539.269 204.785 535.023 207.627 530.35 209.566C525.677 211.506 520.668 212.504 515.608 212.505C513.808 212.506 512.01 212.38 510.227 212.127C507.853 211.802 505.516 211.25 503.247 210.48C495.615 207.892 488.986 202.974 484.295 196.418C479.605 189.863 477.087 182 477.099 173.938V173.793C477.122 163.597 481.187 153.826 488.402 146.625C495.618 139.424 505.393 135.381 515.585 135.383H516.056C526.163 135.514 535.813 139.615 542.925 146.8C550.037 153.986 554.04 163.681 554.071 173.793L554.095 173.938Z" fill="#262629"/>
<path d="M546.48 166.303C546.352 165.808 546.218 165.308 546.061 164.825C545.31 162.408 544.267 160.092 542.955 157.929C542.693 157.498 542.419 157.079 542.14 156.66C542.006 156.456 541.861 156.252 541.716 156.049C539.245 152.573 536.09 149.64 532.443 147.431C528.796 145.222 524.736 143.784 520.512 143.205C520.043 143.147 519.567 143.19 519.116 143.33C518.664 143.471 518.248 143.707 517.895 144.021C517.542 144.336 517.261 144.722 517.069 145.154C516.877 145.587 516.78 146.055 516.783 146.528V152.109C516.79 152.899 517.077 153.661 517.592 154.26C518.108 154.859 518.819 155.256 519.599 155.38C523.489 156.065 527.07 157.946 529.841 160.763C532.612 163.579 534.437 167.19 535.061 171.093C535.17 171.874 535.556 172.59 536.148 173.11C536.741 173.631 537.501 173.92 538.289 173.927H543.903C544.379 173.926 544.849 173.823 545.283 173.626C545.717 173.43 546.104 173.143 546.418 172.785C546.733 172.428 546.968 172.007 547.108 171.552C547.248 171.097 547.289 170.617 547.23 170.144C547.061 168.849 546.81 167.566 546.48 166.303Z" fill="#262629"/>
<path d="M451.823 222.952V285.094C451.822 285.738 451.949 286.377 452.195 286.972C452.441 287.568 452.802 288.109 453.258 288.565C453.713 289.02 454.254 289.382 454.85 289.628C455.445 289.874 456.083 290.001 456.727 290H472.934C474.236 290 475.485 289.482 476.405 288.561C477.326 287.64 477.843 286.391 477.843 285.088V242.68C477.844 242.387 477.766 242.099 477.619 241.845C477.472 241.592 477.26 241.382 477.006 241.237C468.458 236.28 460.936 229.736 454.842 221.956C454.632 221.674 454.339 221.465 454.004 221.359C453.668 221.253 453.308 221.255 452.974 221.365C452.64 221.476 452.349 221.688 452.143 221.973C451.936 222.257 451.824 222.6 451.823 222.952Z" fill="#262629"/>
<path d="M152.584 213.268C157.958 217.412 163.978 220.642 170.402 222.829C170.74 222.944 171.053 223.126 171.321 223.363C171.59 223.599 171.809 223.887 171.965 224.209C172.121 224.531 172.212 224.881 172.232 225.239C172.253 225.596 172.202 225.954 172.083 226.292L168.307 236.959C168.117 237.495 167.765 237.957 167.3 238.284C166.835 238.61 166.281 238.784 165.713 238.781H143.747C143.312 238.785 142.883 238.684 142.495 238.488C142.107 238.291 141.771 238.005 141.517 237.652C141.262 237.299 141.096 236.891 141.031 236.46C140.967 236.03 141.007 235.59 141.147 235.179L148.337 214.542C148.485 214.138 148.725 213.774 149.038 213.478C149.352 213.183 149.729 212.965 150.141 212.841C150.554 212.718 150.989 212.692 151.413 212.766C151.837 212.84 152.238 213.012 152.584 213.268Z" fill="#262629"/>
<path d="M273.406 170.295C272.144 173.851 270.852 173.874 270.852 173.874H270.817C267.072 173.851 263.371 173.059 259.945 171.546C258.172 170.739 256.498 169.732 254.954 168.543C247.537 162.997 244.332 157.789 240.818 154.471C240.494 154.168 240.246 153.79 240.097 153.372C239.602 151.934 239.096 150.497 238.59 149.053C232.715 131.486 226.838 113.93 220.959 96.3853C220.779 95.8318 220.43 95.3493 219.959 95.0071C219.489 94.6649 218.922 94.4805 218.341 94.4805C217.759 94.4805 217.193 94.6649 216.722 95.0071C216.252 95.3493 215.902 95.8318 215.723 96.3853C209.836 113.934 203.953 131.48 198.074 149.024C197.57 150.468 197.068 151.907 196.567 153.342C196.418 153.761 196.171 154.139 195.846 154.442C192.356 157.76 189.127 162.968 181.716 168.514C180.169 169.701 178.493 170.708 176.719 171.517C173.295 173.03 169.596 173.823 165.853 173.845H165.812C165.812 173.845 164.526 173.845 163.258 170.266C162.048 166.873 187.626 94.7674 199.156 62.5497C199.592 61.3323 200.393 60.2793 201.45 59.5345C202.507 58.7897 203.768 58.3896 205.06 58.3887H231.726C233.024 58.3877 234.291 58.7889 235.353 59.5371C236.414 60.2852 237.218 61.3437 237.654 62.5672C249.148 94.7907 274.633 166.902 273.406 170.295Z" fill="#262629"/>
<path d="M284.121 213.268C278.745 217.41 272.725 220.64 266.303 222.829C265.963 222.943 265.649 223.124 265.38 223.36C265.111 223.597 264.892 223.885 264.735 224.207C264.578 224.53 264.488 224.88 264.468 225.238C264.449 225.596 264.501 225.955 264.622 226.292L268.391 236.96C268.583 237.494 268.935 237.956 269.4 238.282C269.864 238.608 270.418 238.782 270.986 238.781H292.957C293.392 238.785 293.821 238.685 294.209 238.488C294.597 238.292 294.933 238.005 295.187 237.652C295.441 237.299 295.607 236.89 295.67 236.46C295.734 236.03 295.693 235.59 295.551 235.179L288.391 214.542C288.245 214.133 288.005 213.765 287.69 213.466C287.375 213.167 286.994 212.947 286.578 212.823C286.163 212.699 285.723 212.674 285.296 212.752C284.87 212.829 284.467 213.006 284.121 213.268Z" fill="#262629"/>
<path d="M294.406 168.322C294.431 168.249 294.481 168.187 294.548 168.147C294.615 168.108 294.693 168.093 294.77 168.106C294.846 168.12 294.916 168.16 294.965 168.22C295.015 168.28 295.041 168.355 295.04 168.433C294.724 172.49 293.919 176.494 292.643 180.358C286.599 198.643 272.01 207.384 269.502 208.827C261.949 213.186 253.412 215.553 244.694 215.704C235.975 215.856 227.361 213.788 219.661 209.694C219.18 209.439 218.644 209.306 218.099 209.306C217.555 209.306 217.018 209.439 216.537 209.694C208.837 213.788 200.223 215.856 191.505 215.704C182.786 215.553 174.249 213.186 166.696 208.827C164.189 207.384 149.6 198.643 143.556 180.358C142.282 176.489 141.475 172.482 141.153 168.421C141.15 168.343 141.176 168.267 141.225 168.206C141.274 168.144 141.343 168.103 141.42 168.089C141.497 168.075 141.576 168.089 141.644 168.129C141.711 168.168 141.762 168.231 141.787 168.305C142.68 171.577 144.206 174.641 146.278 177.325C148.707 180.432 151.803 182.953 155.338 184.702C158.872 186.451 162.754 187.383 166.696 187.428C170.406 187.394 174.069 186.59 177.452 185.066C179.211 184.257 180.87 183.247 182.397 182.057C193.408 173.735 195.043 166.169 202.408 164.598C207.434 163.521 211.657 165.995 212.18 166.309C214.71 167.886 216.676 170.222 217.8 172.984C217.827 173.038 217.868 173.083 217.92 173.115C217.971 173.146 218.03 173.163 218.091 173.163C218.151 173.163 218.21 173.146 218.261 173.115C218.313 173.083 218.354 173.038 218.381 172.984C219.505 170.221 221.474 167.884 224.007 166.309C224.524 165.995 228.748 163.521 233.774 164.598C241.138 166.163 242.773 173.729 253.785 182.057C255.311 183.247 256.971 184.257 258.729 185.066C262.113 186.588 265.775 187.39 269.485 187.423C273.431 187.38 277.317 186.45 280.855 184.702C284.393 182.954 287.493 180.433 289.926 177.325C291.993 174.646 293.515 171.587 294.406 168.322Z" fill="#262629"/>
<path d="M545.729 250.997C548.832 253.616 550.383 257.214 550.383 261.792C550.383 266.37 548.832 269.957 545.729 272.553C542.627 275.156 538.336 276.456 532.856 276.452H521.332V290H516.795V247.074H532.85C538.334 247.074 542.627 248.382 545.729 250.997ZM542.483 269.672C544.729 267.817 545.851 265.191 545.851 261.792C545.851 258.3 544.729 255.633 542.483 253.79C540.238 251.947 536.988 251.016 532.734 250.997H521.332V272.465H532.734C536.988 272.465 540.238 271.534 542.483 269.672Z" fill="#262629"/>
<path d="M617.327 290L607.519 276.202C606.38 276.33 605.234 276.392 604.087 276.388H592.563V290H588.026V247.074H604.087C609.559 247.074 613.85 248.382 616.96 250.997C620.071 253.612 621.622 257.21 621.614 261.792C621.758 264.82 620.865 267.807 619.081 270.258C617.298 272.709 614.731 274.477 611.806 275.271L622.277 289.988L617.327 290ZM613.709 269.701C615.958 267.819 617.083 265.183 617.083 261.792C617.083 258.3 615.958 255.633 613.709 253.79C611.459 251.947 608.211 251.016 603.965 250.997H592.563V272.529H603.965C608.211 272.526 611.459 271.583 613.709 269.701Z" fill="#262629"/>
<path d="M667.191 287.2C663.885 285.415 661.132 282.756 659.234 279.513C657.357 276.16 656.372 272.382 656.372 268.54C656.372 264.697 657.357 260.919 659.234 257.567C661.129 254.321 663.883 251.661 667.191 249.879C670.688 248.037 674.579 247.071 678.531 247.066C682.483 247.061 686.377 248.017 689.878 249.85C693.174 251.639 695.917 254.298 697.807 257.538C699.702 260.894 700.698 264.684 700.698 268.54C700.698 272.395 699.702 276.185 697.807 279.542C695.915 282.78 693.173 285.439 689.878 287.23C686.376 289.06 682.483 290.014 678.531 290.009C674.58 290.004 670.689 289.04 667.191 287.2ZM687.592 283.761C690.239 282.295 692.429 280.126 693.921 277.493C695.421 274.748 696.207 271.669 696.207 268.54C696.207 265.411 695.421 262.332 693.921 259.586C692.428 256.951 690.236 254.78 687.586 253.312C684.798 251.83 681.689 251.054 678.532 251.054C675.375 251.054 672.265 251.83 669.478 253.312C666.808 254.774 664.593 256.945 663.079 259.586C661.56 262.326 660.764 265.407 660.764 268.54C660.764 271.672 661.56 274.753 663.079 277.493C664.593 280.133 666.808 282.302 669.478 283.761C672.264 285.248 675.374 286.025 678.532 286.025C681.69 286.025 684.8 285.248 687.586 283.761H687.592Z" fill="#262629"/>
<path d="M736.45 288.423C734.407 287.388 732.668 285.837 731.407 283.924L734.083 280.881C736.433 284.373 739.493 286.118 743.262 286.118C748.528 286.118 751.162 282.997 751.162 276.755V250.973H735.601V247.08H755.647V276.568C755.647 281.03 754.602 284.386 752.511 286.636C750.421 288.887 747.332 290.01 743.245 290.006C740.886 290.033 738.555 289.49 736.45 288.423Z" fill="#262629"/>
<path d="M827.395 286.078V290H797.053V247.074H826.476V250.997H801.602V266.267H823.789V270.132H801.602V286.078H827.395Z" fill="#262629"/>
<path d="M872.926 287.23C869.629 285.447 866.888 282.787 865.009 279.542C863.132 276.179 862.147 272.392 862.147 268.54C862.147 264.688 863.132 260.901 865.009 257.538C866.888 254.289 869.633 251.627 872.938 249.85C876.415 247.974 880.314 247.018 884.264 247.074C887.23 247.044 890.174 247.575 892.943 248.64C895.514 249.633 897.825 251.201 899.697 253.226L896.864 256.06C893.564 252.723 889.404 251.055 884.386 251.055C881.206 251.015 878.07 251.805 875.288 253.348C872.624 254.815 870.412 256.982 868.889 259.616C867.371 262.344 866.574 265.414 866.574 268.537C866.574 271.66 867.371 274.731 868.889 277.459C870.412 280.093 872.624 282.262 875.288 283.732C878.07 285.275 881.206 286.065 884.386 286.025C889.428 286.025 893.587 284.336 896.864 280.956L899.697 283.79C897.815 285.824 895.496 287.402 892.914 288.405C890.134 289.491 887.172 290.032 884.188 290C880.259 290.055 876.382 289.101 872.926 287.23Z" fill="#262629"/>
<path d="M945.332 250.997H930.254V247.074H964.947V250.997H949.869V289.988H945.332V250.997Z" fill="#262629"/>
<path d="M7.99857 13.9204H0V11.8428H18.4054V13.9204H10.4069V34.6093H7.99857V13.9204Z" fill="#262629"/>
<path d="M41.2608 11.8428V34.6093H38.8874V24.1339H24.6471V34.6093H22.2388V11.8428H24.6471V21.9923H38.8874V11.8428H41.2608Z" fill="#262629"/>
<path d="M64.7679 32.5317V34.6093H48.6719V11.8428H64.2793V13.9204H51.0802V22.0214H62.825V24.0699H51.0802V32.5317H64.7679Z" fill="#262629"/>
<path d="M97.9664 11.8428V34.6093H95.593V24.1339H81.3526V34.6093H78.9443V11.8428H81.3526V21.9923H95.593V11.8428H97.9664Z" fill="#262629"/>
<path d="M109.199 33.2945C107.415 32.3314 105.93 30.8959 104.906 29.1451C103.866 27.3481 103.334 25.3025 103.365 23.2265C103.334 21.1504 103.867 19.105 104.906 17.3078C105.93 15.557 107.415 14.1215 109.199 13.1584C111.084 12.1723 113.18 11.6572 115.307 11.6572C117.434 11.6572 119.53 12.1723 121.415 13.1584C123.192 14.126 124.67 15.5608 125.691 17.3078C126.739 19.1082 127.278 21.1603 127.25 23.2439C127.279 25.3276 126.74 27.3798 125.691 29.18C124.672 30.9285 123.193 32.3638 121.415 33.3294C119.53 34.3155 117.434 34.8306 115.307 34.8306C113.18 34.8306 111.084 34.3155 109.199 33.3294V33.2945ZM120.205 31.4264C121.637 30.6412 122.82 29.4697 123.62 28.0451C124.454 26.5734 124.881 24.9064 124.859 23.2148C124.881 21.5233 124.453 19.8564 123.62 18.3845C122.82 16.9599 121.637 15.7885 120.205 15.0033C118.702 14.2009 117.025 13.7811 115.322 13.7811C113.618 13.7811 111.941 14.2009 110.438 15.0033C108.998 15.7898 107.804 16.9601 106.989 18.3845C106.149 19.8544 105.717 21.522 105.738 23.2148C105.717 24.9077 106.148 26.5755 106.989 28.0451C107.804 29.4695 108.998 30.6399 110.438 31.4264C111.941 32.2288 113.618 32.6485 115.322 32.6485C117.025 32.6485 118.702 32.2288 120.205 31.4264Z" fill="#262629"/>
<path d="M156.301 11.8428V34.6093H153.974V16.3938L145.05 31.7169H143.887L134.958 16.4927V34.6093H132.631V11.8428H134.615L144.504 28.7198L154.294 11.8428H156.301Z" fill="#262629"/>
<path d="M179.808 32.5317V34.6093H163.712V11.8428H179.319V13.9204H166.12V22.0214H177.888V24.0699H166.12V32.5317H179.808Z" fill="#262629"/>
<path d="M197.783 33.294C195.998 32.331 194.513 30.8955 193.49 29.1446C192.456 27.3459 191.929 25.3005 191.966 23.226C191.937 21.1495 192.472 19.1041 193.513 17.3074C194.53 15.5596 196.007 14.1244 197.783 13.158C199.668 12.1709 201.763 11.6553 203.891 11.6553C206.018 11.6553 208.114 12.1709 209.999 13.158C211.775 14.1255 213.254 15.5603 214.274 17.3074C215.325 19.1073 215.866 21.1594 215.839 23.2435C215.867 25.3277 215.326 27.3799 214.274 29.1795C213.256 30.9281 211.777 32.3633 209.999 33.3289C208.114 34.316 206.018 34.8316 203.891 34.8316C201.763 34.8316 199.668 34.316 197.783 33.3289V33.294ZM208.835 31.4259C210.264 30.6365 211.446 29.466 212.25 28.0447C213.079 26.5715 213.505 24.9051 213.483 23.2144C213.504 21.5237 213.079 19.8575 212.25 18.384C211.445 16.967 210.263 15.8007 208.835 15.0144C207.331 14.212 205.653 13.7923 203.949 13.7923C202.245 13.7923 200.566 14.212 199.063 15.0144C197.622 15.8009 196.428 16.9713 195.613 18.3957C194.773 19.8656 194.342 21.5332 194.362 23.226C194.341 24.9189 194.773 26.5867 195.613 28.0563C196.424 29.4733 197.609 30.6392 199.039 31.4259C200.546 32.2323 202.228 32.6543 203.937 32.6543C205.646 32.6543 207.329 32.2323 208.835 31.4259Z" fill="#262629"/>
<path d="M223.669 13.9204V22.871H235.437V24.9487H223.669V34.6093H221.261V11.8428H236.868V13.9204H223.669Z" fill="#262629"/>
<path d="M563.344 20.3692C563.673 20.1495 563.94 19.8477 564.117 19.4936C564.295 19.1395 564.377 18.7453 564.356 18.3498C564.378 17.9557 564.296 17.5628 564.118 17.2105C563.941 16.8581 563.674 16.5586 563.344 16.342C562.437 15.8543 561.41 15.6362 560.383 15.7135H555.147V21.0908H560.383C561.419 21.1459 562.449 20.8949 563.344 20.3692Z" fill="#588CA3"/>
<path d="M464.61 16.0566H459.787V30.1984H464.61C466.89 30.1984 468.709 29.5641 470.066 28.2954C470.753 27.628 471.289 26.822 471.64 25.9309C471.991 25.0398 472.149 24.0842 472.102 23.1275C472.149 22.1718 471.991 21.217 471.64 20.3269C471.289 19.4368 470.753 18.6318 470.066 17.9655C468.713 16.6929 466.894 16.0566 464.61 16.0566Z" fill="#588CA3"/>
<path d="M561.296 24.9199H555.136V30.5592H561.296C562.387 30.6301 563.476 30.3921 564.437 29.8725C564.787 29.6464 565.07 29.3307 565.256 28.9581C565.442 28.5854 565.525 28.1697 565.496 27.7541C565.496 25.8685 564.096 24.9238 561.296 24.9199Z" fill="#588CA3"/>
<path d="M264.104 25.6358H271.335L267.722 16.9062L264.104 25.6358Z" fill="#588CA3"/>
<path d="M577.421 0H248.392C247.749 0 247.132 0.25568 246.677 0.710794C246.222 1.16591 245.966 1.78317 245.966 2.4268V43.8687C245.966 44.5128 246.222 45.1307 246.676 45.5867C247.131 46.0428 247.748 46.2998 248.392 46.3013H577.421C578.066 46.3013 578.685 46.045 579.141 45.5888C579.597 45.1326 579.853 44.5138 579.853 43.8687V2.4268C579.851 1.78264 579.594 1.16539 579.139 0.71044C578.683 0.255493 578.065 -1.84337e-06 577.421 0ZM275.017 34.5339L272.999 29.6454H262.411L260.393 34.5339H254.983L265.145 11.7208H270.381L280.572 34.5339H275.017ZM302.905 24.495C302.905 27.8432 301.997 30.4194 300.182 32.2235C298.367 34.0276 295.841 34.9258 292.602 34.918C289.345 34.918 286.808 34.0179 284.994 32.2177C283.179 30.4175 282.263 27.8432 282.248 24.495V11.6917H287.53V24.3029C287.53 28.3884 289.223 30.4311 292.608 30.4311C293.309 30.4777 294.011 30.3689 294.665 30.1124C295.318 29.8558 295.907 29.4579 296.389 28.947C297.258 27.9577 297.692 26.4058 297.692 24.2913V11.7208H302.928L302.905 24.495ZM312.962 26.9102C313.577 28.0023 314.486 28.8997 315.586 29.4999C316.761 30.1328 318.079 30.4534 319.414 30.4311C320.843 30.4529 322.254 30.1168 323.52 29.4534V22.7724H328.337V32.0082C327.041 32.972 325.586 33.7008 324.038 34.1615C322.448 34.6547 320.793 34.9096 319.129 34.918C316.903 34.9567 314.703 34.4365 312.73 33.4049C310.898 32.44 309.368 30.988 308.309 29.2089C307.219 27.3697 306.66 25.265 306.691 23.1274C306.66 20.9916 307.219 18.8887 308.309 17.0516C309.38 15.2587 310.932 13.8013 312.788 12.844C314.779 11.8167 316.993 11.2969 319.233 11.3309C321.097 11.305 322.948 11.6492 324.678 12.3435C326.247 12.9764 327.643 13.9738 328.75 15.2534L325.364 18.3785C324.619 17.5565 323.708 16.9021 322.691 16.4587C321.674 16.0153 320.575 15.7929 319.466 15.8062C318.118 15.7798 316.786 16.0941 315.592 16.7199C314.484 17.314 313.571 18.2152 312.962 19.3155C312.318 20.481 311.993 21.7959 312.02 23.1274C311.998 24.449 312.323 25.7532 312.962 26.9102ZM353.979 34.5339L353.944 20.8461L347.237 32.1246H344.864L338.185 21.1429V34.5281H333.229V11.7208H337.598L346.12 25.8975L354.526 11.7208H358.86L358.924 34.5339H353.979ZM381.994 34.5339H364.339V11.7208H381.605V15.9575H369.586V20.9101H380.174V25.0246H369.586V30.303H382L381.994 34.5339ZM407.107 34.5339H402.779L391.412 20.6831V34.5339H386.177V11.7208H390.54L401.877 25.5716V11.7208H407.113L407.107 34.5339ZM429.794 16.0216H422.522V34.5339H417.246V16.0216H409.946V11.7208H429.817L429.794 16.0216ZM450.288 34.5339H432.65V11.7208H449.886V15.9575H437.897V20.9101H448.502V25.0246H437.915V30.303H450.328L450.288 34.5339ZM475.842 29.1275C474.776 30.8544 473.238 32.2398 471.41 33.1197C469.362 34.0947 467.115 34.5789 464.848 34.5339H454.511V11.7208H464.871C467.139 11.6757 469.386 12.162 471.433 13.1408C473.254 14.0228 474.784 15.4082 475.842 17.1331C476.92 18.9436 477.466 21.0209 477.419 23.1274C477.466 25.2357 476.92 27.3149 475.842 29.1275ZM517.621 34.5339H511.949L506.958 19.0885L501.775 34.5339H496.144L488.64 11.7208H494.108L499.256 27.754L504.631 11.7208H509.518L514.753 27.8879L520.053 11.7208H525.102L517.621 34.5339ZM545.666 34.5339H528.034V11.7208H545.264V15.9575H533.281V20.9101H543.868V25.0246H533.281V30.303H545.689L545.666 34.5339ZM568.451 32.9219C566.9 33.9966 564.637 34.5339 561.663 34.5339H549.895V11.7208H561.034C563.815 11.7208 565.948 12.2543 567.433 13.3212C568.141 13.7952 568.717 14.4409 569.108 15.1981C569.499 15.9553 569.691 16.7993 569.667 17.6511C569.684 18.6955 569.408 19.7239 568.87 20.6191C568.33 21.5035 567.557 22.2222 566.636 22.6967C567.848 23.0471 568.918 23.7699 569.696 24.7627C570.457 25.7953 570.848 27.0539 570.807 28.336C570.842 29.2361 570.646 30.1301 570.238 30.9329C569.83 31.7357 569.223 32.4205 568.475 32.9219H568.451Z" fill="#588CA3"/>
</svg>
