<svg width="57" height="65" viewBox="0 0 57 65" fill="none" xmlns="http://www.w3.org/2000/svg">
<path d="M22.5624 26.969C20.7302 26.969 19.2837 28.5762 19.2837 30.537C19.2837 32.4978 20.7623 34.1051 22.5624 34.1051C24.3947 34.1051 25.8412 32.4978 25.8412 30.537C25.8733 28.5762 24.3947 26.969 22.5624 26.969ZM34.2951 26.969C32.4629 26.969 31.0164 28.5762 31.0164 30.537C31.0164 32.4978 32.4951 34.1051 34.2951 34.1051C36.1274 34.1051 37.5739 32.4978 37.5739 30.537C37.5739 28.5762 36.1274 26.969 34.2951 26.969Z" fill="#727272"/>
<path d="M49.9161 0H6.84254C3.21022 0 0.25293 2.95729 0.25293 6.62176V50.0811C0.25293 53.7455 3.21022 56.7028 6.84254 56.7028H43.2943L41.5907 50.7561L45.7052 54.5813L49.5947 58.1815L56.5057 64.2889V6.62176C56.5057 2.95729 53.5484 0 49.9161 0ZM37.5084 41.9807C37.5084 41.9807 36.3512 40.5984 35.3868 39.377C39.5977 38.1876 41.205 35.5518 41.205 35.5518C39.887 36.4197 38.6334 37.0304 37.5084 37.4483C35.9011 38.1233 34.3582 38.5733 32.8474 38.8305C30.0944 39.3374 27.271 39.3265 24.522 38.7984C22.9081 38.4826 21.3264 38.0199 19.7968 37.4161C18.9904 37.1061 18.2064 36.7409 17.4502 36.3232C17.3538 36.2589 17.2573 36.2268 17.1609 36.1625C17.0966 36.1304 17.0645 36.0982 17.0323 36.0661C16.4537 35.7446 16.1323 35.5196 16.1323 35.5196C16.1323 35.5196 17.6752 38.0912 21.7576 39.3127C20.7932 40.5342 19.6039 41.9807 19.6039 41.9807C12.5 41.7556 9.79983 37.0947 9.79983 37.0947C9.79983 26.7442 14.4286 18.3545 14.4286 18.3545C19.0574 14.8829 23.4612 14.9793 23.4612 14.9793L23.7827 15.365C17.9967 17.0366 15.3287 19.576 15.3287 19.576C15.3287 19.576 16.0359 19.1902 17.2252 18.6438C20.6647 17.133 23.3969 16.7151 24.522 16.6187C24.7149 16.5865 24.8756 16.5544 25.0684 16.5544C30.6426 15.7999 36.3116 16.8593 41.2371 19.576C41.2371 19.576 38.6977 17.1651 33.2331 15.4936L33.6832 14.9793C33.6832 14.9793 38.0869 14.8829 42.7157 18.3545C42.7157 18.3545 47.3446 26.7442 47.3446 37.0947C47.3446 37.0947 44.6123 41.7556 37.5084 41.9807Z" fill="#727272"/>
</svg>
