<svg width="57" height="46" viewBox="0 0 57 46" fill="none" xmlns="http://www.w3.org/2000/svg">
<path d="M54.5054 0.644531H2.50537C1.39912 0.644531 0.505371 1.55859 0.505371 2.68999V43.5991C0.505371 44.7305 1.39912 45.6445 2.50537 45.6445H54.5054C55.6116 45.6445 56.5054 44.7305 56.5054 43.5991V2.68999C56.5054 1.55859 55.6116 0.644531 54.5054 0.644531ZM49.4554 7.60547L29.7366 23.2979C29.2491 23.6879 28.5679 23.6879 28.0804 23.2979L8.35537 7.60547C8.28101 7.54678 8.22648 7.46577 8.1994 7.37379C8.17233 7.28181 8.17407 7.18347 8.20439 7.09255C8.23471 7.00163 8.29209 6.9227 8.36848 6.86681C8.44487 6.81092 8.53645 6.78088 8.63037 6.78089H49.1804C49.2743 6.78088 49.3659 6.81092 49.4423 6.86681C49.5187 6.9227 49.576 7.00163 49.6063 7.09255C49.6367 7.18347 49.6384 7.28181 49.6113 7.37379C49.5843 7.46577 49.5297 7.54678 49.4554 7.60547Z" fill="#727272"/>
</svg>
