<svg width="57" height="58" viewBox="0 0 57 58" fill="none" xmlns="http://www.w3.org/2000/svg">
<path d="M18.764 33.5779H11.3907C10.6392 30.6718 10.6392 27.6173 11.3907 24.7112H18.764C18.5722 26.1812 18.4683 27.6617 18.4529 29.1445C18.4683 30.6274 18.5722 32.1079 18.764 33.5779ZM13.1952 20.2779H19.5418C20.2676 17.5426 21.2902 14.8979 22.5907 12.3929C18.622 13.7726 15.2823 16.5754 13.1952 20.2779ZM43.3107 20.2779C41.2072 16.577 37.8587 13.7762 33.884 12.3929C35.2025 14.8859 36.2159 17.534 36.9018 20.2779H43.3107ZM28.2529 46.7829C30.1016 44.109 31.5097 41.1463 32.4218 38.0112H24.084C24.9961 41.1463 26.4042 44.109 28.2529 46.7829ZM28.2529 11.4745C26.4026 14.1589 24.9945 17.1324 24.084 20.2779H32.4218C31.5113 17.1324 30.1032 14.1589 28.2529 11.4745ZM13.1952 38.0112C15.2954 41.7024 18.6304 44.5012 22.5907 45.8962C21.2902 43.3911 20.2676 40.7465 19.5418 38.0112H13.1952ZM56.2529 6.97786V51.3112C56.2529 52.9909 55.5974 54.6018 54.4305 55.7895C53.2636 56.9773 51.6809 57.6445 50.0307 57.6445H6.47515C4.82492 57.6445 3.24227 56.9773 2.07538 55.7895C0.908483 54.6018 0.25293 52.9909 0.25293 51.3112V6.97786C0.25293 5.29816 0.908483 3.68725 2.07538 2.49952C3.24227 1.31179 4.82492 0.644531 6.47515 0.644531H50.0307C51.6809 0.644531 53.2636 1.31179 54.4305 2.49952C55.5974 3.68725 56.2529 5.29816 56.2529 6.97786ZM50.0307 29.1445C50.0307 24.7604 48.7535 20.4747 46.3605 16.8294C43.9675 13.1841 40.5663 10.3429 36.5869 8.6652C32.6076 6.98746 28.2288 6.54848 24.0043 7.40379C19.7798 8.2591 15.8994 10.3703 12.8537 13.4703C9.80804 16.5704 7.73391 20.5201 6.89361 24.82C6.05331 29.1199 6.48458 33.5769 8.13289 37.6273C9.78119 41.6778 12.5725 45.1397 16.1538 47.5754C19.7352 50.0111 23.9457 51.3112 28.2529 51.3112C34.0288 51.3112 39.568 48.9758 43.6521 44.8187C47.7363 40.6617 50.0307 35.0235 50.0307 29.1445ZM38.0529 29.1445C38.0375 30.6274 37.9336 32.1079 37.7418 33.5779H45.1152C45.8667 30.6718 45.8667 27.6173 45.1152 24.7112H37.7418C37.9336 26.1812 38.0375 27.6617 38.0529 29.1445ZM33.884 45.8962C37.8545 44.5053 41.2006 41.7064 43.3107 38.0112H36.9018C36.2159 40.7551 35.2025 43.4031 33.884 45.8962ZM23.1507 24.7112C22.6863 27.6479 22.6863 30.6412 23.1507 33.5779H33.3552C33.5682 32.1097 33.6825 30.6285 33.6974 29.1445C33.6834 27.6605 33.5691 26.1792 33.3552 24.7112H23.1507Z" fill="#727272"/>
</svg>
