<svg width="57" height="57" viewBox="0 0 57 57" fill="none" xmlns="http://www.w3.org/2000/svg">
<path fill-rule="evenodd" clip-rule="evenodd" d="M56.2528 28.1445C56.2528 43.6773 43.6592 56.2709 28.1264 56.2709C12.5936 56.2709 0 43.6773 0 28.1445C0 12.6117 12.5936 0.0180664 28.1264 0.0180664C43.6592 0.0180664 56.2528 12.6117 56.2528 28.1445ZM29.1343 20.7824C26.399 21.9192 20.9307 24.2747 12.7319 27.8468C11.4006 28.3765 10.7021 28.8945 10.6388 29.4008C10.531 30.2586 11.6045 30.5961 13.0624 31.0532C13.2616 31.1165 13.4679 31.1798 13.6788 31.2501C15.1156 31.7165 17.0469 32.2626 18.0501 32.2837C18.9619 32.3025 19.9791 31.9275 21.1018 31.1587C28.7616 25.9858 32.7157 23.3723 32.9641 23.3161C33.1399 23.2762 33.3837 23.2247 33.5478 23.3723C33.7118 23.5177 33.6954 23.7942 33.679 23.8692C33.5712 24.3216 29.3663 28.2335 27.1865 30.2586C26.5068 30.8891 26.0263 31.3368 25.9278 31.4399C25.7075 31.6673 25.4825 31.8853 25.2669 32.0939C23.9309 33.3783 22.9324 34.344 25.3231 35.9191C26.4716 36.6761 27.3904 37.3019 28.3069 37.9254C29.3077 38.6075 30.3062 39.2872 31.6 40.1357C31.9281 40.3513 32.2422 40.574 32.5493 40.792C33.7142 41.624 34.7619 42.3694 36.0557 42.2522C36.8057 42.1819 37.5839 41.4764 37.9777 39.3692C38.9082 34.3862 40.7411 23.595 41.1653 19.1464C41.1911 18.777 41.1754 18.4059 41.1184 18.0401C41.0843 17.7446 40.9405 17.4727 40.7153 17.2783C40.3801 17.0041 39.8598 16.9455 39.6254 16.9502C38.5683 16.9689 36.9464 17.5338 29.1343 20.7824Z" fill="#727272"/>
</svg>
